<?xml version="1.0" encoding="UTF-8"?>
<svg version="1.1" xmlns="http://www.w3.org/2000/svg" width="1824" height="2362">
<path d="M0 0 C5.26868738 4.07186626 9.04269296 9.31940075 13.03515625 14.6015625 C18.30604532 21.43796154 25.17589897 27.04806584 33.890625 28.31640625 C42.43514359 28.82130962 49.14288819 26.08178424 55.66015625 20.671875 C59.19752975 17.31737057 62.43362653 13.71074841 65.69555664 10.09082031 C71.25150177 3.97473902 77.06761325 -1.14511739 85.078125 -3.62109375 C92.95116335 -3.92390292 99.58195021 1.3708536 105.31640625 6.3046875 C108.76112529 9.64238615 111.74836969 13.18176841 114.640625 17.00390625 C118.45928712 22.04314531 122.56368698 27.277374 129.078125 28.37890625 C136.80340628 29.06087754 143.57119847 28.89482449 150.078125 24.37890625 C156.31238418 18.94935286 161.56121094 12.91164117 166.54296875 6.31640625 C170.94840225 0.75636805 176.11659338 -2.27743707 183.078125 -3.62109375 C191.04371664 -4.35943736 197.00070349 -0.39422845 203.078125 4.37890625 C206.44865575 7.60927632 209.20171212 11.23484633 212.03515625 14.93359375 C217.3538531 21.78789906 222.24002739 27.39484352 231.078125 29.37890625 C239.33969222 30.34275576 245.15383268 27.39942216 251.65625 22.39453125 C256.82245195 17.92560809 261.04095143 13.06252806 265.21484375 7.67578125 C269.76080976 2.07194894 274.87023737 -2.1656549 282.078125 -3.62109375 C288.86870018 -3.62109375 293.39472705 -1.18637348 299.078125 2.37890625 C299.078125 3.03890625 299.078125 3.69890625 299.078125 4.37890625 C300.068125 4.70890625 301.058125 5.03890625 302.078125 5.37890625 C304.21085991 7.97783278 306.17923515 10.64117307 308.14257812 13.3671875 C313.00749779 19.9486967 319.40461594 26.19082696 327.65234375 27.91796875 C335.85076011 28.90132134 342.64829902 28.45067691 349.453125 23.50390625 C355.99338222 18.03261902 361.97756164 11.48715271 367.109375 4.6875 C371.14481321 -0.04453171 377.32884774 -2.82585619 383.515625 -3.37109375 C391.75656626 -2.86059296 399.0272573 3.72679643 404.46875 9.4921875 C406.254283 11.58542157 407.91743267 13.7479697 409.578125 15.94140625 C414.03095025 21.7788908 418.62433278 26.88814781 426.078125 28.37890625 C435.33540028 29.34503555 442.88611745 26.91377839 450.109375 21.109375 C455.03562266 16.77935969 459.49539785 12.101595 463.765625 7.12890625 C467.76586309 2.49226665 472.07406042 -1.89052758 478.3046875 -3.02734375 C485.6348427 -3.31386447 490.3998641 -1.19800675 496.078125 3.37890625 C500.06383224 7.30204352 503.62961104 11.49381423 507.03515625 15.92578125 C511.93071358 21.80419425 518.31107952 27.40802556 526.078125 28.37890625 C537.01764982 28.46901766 543.58671378 24.29234548 551.4375 17.01953125 C553.80509025 14.651941 556.03027602 12.22375042 558.2421875 9.71411133 C563.87375435 3.33042356 569.00861631 -0.99885097 577.203125 -3.62109375 C584.21622379 -3.62109375 590.7698756 1.12875011 596.078125 5.37890625 C599.85449803 9.16152122 603.3781232 13.15516652 606.625 17.40234375 C611.45613558 23.61768109 617.89488187 27.14314692 625.703125 28.31640625 C633.49849177 28.74036479 638.6482835 26.59117584 644.64453125 21.64453125 C648.49837338 18.05668464 652.01080392 14.185446 655.5 10.24609375 C660.52622135 4.65632637 664.9859133 0.62274609 671.890625 -2.37109375 C672.49519531 -2.6340625 673.09976563 -2.89703125 673.72265625 -3.16796875 C679.05030837 -4.19285705 683.44244824 -3.30678167 687.921875 -0.40625 C689.15242157 0.48524172 690.37125016 1.3931211 691.578125 2.31640625 C692.20976563 2.77208984 692.84140625 3.22777344 693.4921875 3.69726562 C695.06858573 4.86250371 696.58013684 6.11445276 698.078125 7.37890625 C698.078125 8.03890625 698.078125 8.69890625 698.078125 9.37890625 C698.738125 9.37890625 699.398125 9.37890625 700.078125 9.37890625 C702.21301777 11.99367757 704.19884462 14.67653084 706.18164062 17.40625 C709.97973871 22.52017934 713.80692214 26.48698134 720.078125 28.37890625 C728.48571794 29.2718506 735.57698084 28.71005101 742.4375 23.6328125 C747.39296385 19.43913579 751.28699376 14.90625514 755.078125 9.69140625 C760.4135909 2.44192796 766.11064988 -2.23148836 775.140625 -3.80859375 C780.80563428 -4.03022948 784.69751879 -2.09536764 789.078125 1.37890625 C792.75952434 4.9345652 795.92995641 8.82508306 798.96875 12.9375 C804.19752042 19.91982147 811.05870219 26.90173681 820.078125 28.37890625 C827.65553956 28.94913137 834.06623312 28.35364826 841.078125 25.37890625 C841.078125 24.71890625 841.078125 24.05890625 841.078125 23.37890625 C842.40625 22.14453125 842.40625 22.14453125 844.328125 20.62890625 C848.41779813 17.19184054 851.69488333 13.35737194 855.078125 9.25390625 C860.28217031 3.02968287 864.66222688 -1.3815434 872.640625 -3.62109375 C880.99658697 -3.62109375 888.06039384 2.00960342 894.078125 7.37890625 C896.80448316 10.45964817 899.32168356 13.69462812 901.75463867 17.01074219 C905.78582719 22.41749217 910.19695639 27.01973831 917.078125 28.37890625 C927.30451053 29.29733811 934.85309637 26.99888185 942.75 20.46875 C948.28309161 15.50196475 953.58326832 10.3381968 958.203125 4.50390625 C962.10304459 -0.15402588 966.84770657 -1.98383134 972.578125 -3.62109375 C979.49320062 -3.62109375 983.74187098 -0.1827729 988.578125 4.50390625 C991.63761576 7.68912951 994.38869899 11.0033835 997.078125 14.50390625 C1002.28587266 21.15077304 1008.4126608 27.22351102 1017.078125 28.37890625 C1025.61825165 28.34676023 1032.16959118 27.77037941 1038.82421875 21.99609375 C1039.71238281 21.09117188 1040.60054687 20.18625 1041.515625 19.25390625 C1041.99370605 18.76962158 1042.47178711 18.28533691 1042.96435547 17.78637695 C1045.7959207 14.86922405 1048.31209541 11.84919513 1050.703125 8.56640625 C1055.13400438 2.62306323 1061.08611017 -1.23113638 1068.078125 -3.62109375 C1076.36453013 -3.62109375 1082.60110117 0.025062 1088.50390625 5.71875 C1091.97792716 9.5080602 1095.0923763 13.36230391 1097.953125 17.62890625 C1102.04648963 23.20357134 1108.06224608 26.29747441 1114.66015625 28.07421875 C1122.7744293 29.27538673 1129.92188626 27.20655647 1136.578125 22.50390625 C1140.91522264 18.91140767 1144.20278531 14.65053353 1147.453125 10.08642578 C1152.90011695 2.52394239 1159.05811984 -1.32966806 1168.078125 -3.62109375 C1175.88955572 -4.03956325 1182.62016011 1.40372878 1188.31640625 6.3046875 C1191.76112529 9.64238615 1194.74836969 13.18176841 1197.640625 17.00390625 C1201.13922477 21.61026312 1204.85372481 26.15886294 1210.390625 28.25390625 C1211.2775 28.29515625 1212.164375 28.33640625 1213.078125 28.37890625 C1214.191875 28.45238281 1214.191875 28.45238281 1215.328125 28.52734375 C1223.29254743 28.84300683 1228.92913983 27.40996191 1235.078125 22.25390625 C1240.0757721 17.60834388 1244.58305123 12.48266835 1248.85546875 7.16796875 C1253.88230527 1.03545617 1258.73537607 -2.27013212 1266.640625 -3.55859375 C1272.81862873 -3.97116592 1277.09924503 -1.60593891 1281.765625 2.25390625 C1285.40019703 5.56509276 1288.66016903 9.17355742 1291.953125 12.81640625 C1301.50066632 23.7824713 1301.50066632 23.7824713 1314.59375 28.58203125 C1315.94726562 28.60523437 1315.94726562 28.60523437 1317.328125 28.62890625 C1318.66617187 28.66757813 1318.66617187 28.66757813 1320.03125 28.70703125 C1327.7104839 27.88003683 1332.46168282 24.74441403 1337.640625 19.19140625 C1338.20144775 18.61132812 1338.76227051 18.03125 1339.34008789 17.43359375 C1342.32279181 14.32587149 1345.20593142 11.14439456 1348.015625 7.87890625 C1353.35723856 1.69045152 1358.6922553 -2.82950723 1367.078125 -3.62109375 C1377.65472466 -1.57607146 1384.71791057 5.65590101 1391.00390625 13.84375 C1396.85354319 20.99330625 1403.48205139 26.88324665 1412.828125 28.19140625 C1421.52365264 28.77806104 1428.00243379 27.32891583 1434.71875 21.63671875 C1440.65307808 15.95784188 1446.16000923 9.86091654 1451.203125 3.37890625 C1454.44248546 -0.41896463 1458.28577678 -2.34915201 1463.078125 -3.62109375 C1470.73366299 -3.99152301 1476.19557944 -0.27810899 1482.078125 4.37890625 C1487.76830135 9.89126458 1492.56572731 15.89233457 1497.078125 22.37890625 C1497.738125 22.70890625 1498.398125 23.03890625 1499.078125 23.37890625 C1499.078125 24.03890625 1499.078125 24.69890625 1499.078125 25.37890625 C1500.7411834 26.05452373 1502.40907105 26.71823906 1504.078125 27.37890625 C1505.00238281 27.79269531 1505.00238281 27.79269531 1505.9453125 28.21484375 C1510.73277675 30.2453247 1513.91105178 30.82931277 1519.078125 29.37890625 C1526.16931306 26.08438192 1532.03896406 22.04928546 1536.765625 15.75390625 C1548.2016979 1.17724515 1548.2016979 1.17724515 1553.87890625 -0.3984375 C1554.60464844 -0.47191406 1555.33039063 -0.54539062 1556.078125 -0.62109375 C1559.67180642 4.84755189 1560.20304727 9.27691313 1560.2037415 15.7453056 C1560.20630561 17.04202636 1560.20886971 18.33874712 1560.21151152 19.67476245 C1560.2093033 21.11584754 1560.20700435 22.55693249 1560.20462483 23.99801731 C1560.20574171 25.53579399 1560.20729683 27.0735704 1560.20925073 28.61134625 C1560.21337089 32.86501903 1560.2112205 37.11866962 1560.20810487 41.37234242 C1560.20580931 46.00670428 1560.20930608 50.64106231 1560.21207169 55.27542341 C1560.21613425 63.43837281 1560.21644741 71.60131585 1560.21436574 79.76426589 C1560.21126646 91.9845279 1560.21389754 104.20478403 1560.21766445 116.42504561 C1560.2239108 137.24854488 1560.22536871 158.07204208 1560.22424698 178.89554214 C1560.22312398 200.00827218 1560.22414411 221.12100057 1560.22781944 242.23373032 C1560.22805143 243.57893421 1560.22828341 244.9241381 1560.22851536 246.26934199 C1560.22945487 251.69304377 1560.23041117 257.11674555 1560.23138655 262.54044732 C1560.23413222 277.83053335 1560.23651153 293.12061943 1560.23863852 308.41070557 C1560.23878485 309.46180013 1560.23878485 309.46180013 1560.23893413 310.53412893 C1560.24444234 350.40768403 1560.24474381 390.28123923 1560.24515499 430.15479465 C1560.24521823 436.25093838 1560.24528476 442.34708211 1560.24535554 448.44322584 C1560.24537323 449.97112891 1560.24539061 451.49903198 1560.24540766 453.02693505 C1560.24579525 487.30012913 1560.24797311 521.57332301 1560.25053792 555.84651698 C1560.25110947 563.49285153 1560.25166344 571.13918607 1560.25221855 578.78552061 C1560.25227367 579.54450835 1560.25232879 580.30349609 1560.25238558 581.08548346 C1560.25272008 585.69262764 1560.25305385 590.29977183 1560.25338715 594.90691601 C1560.25355423 597.21481042 1560.25372174 599.52270483 1560.25388928 601.83059923 C1560.25649127 637.71554209 1560.25872153 673.60048496 1560.26057148 709.48542786 C1560.26061185 710.26733923 1560.26065222 711.04925061 1560.26069381 711.85485628 C1560.26325731 761.68826567 1560.26415627 811.52167494 1560.26389348 861.35508439 C1560.26388073 863.8059341 1560.26386876 866.2567838 1560.26385707 868.7076335 C1560.26377473 885.92634004 1560.26367202 903.14504659 1560.26356419 920.36375314 C1560.26353342 925.30085722 1560.26350336 930.2379613 1560.26347338 935.17506538 C1560.26344828 939.29325708 1560.26342249 943.41144878 1560.26339526 947.52964048 C1560.26288377 1025.32229176 1560.26430324 1103.11494199 1560.27374268 1180.90759277 C1560.27384203 1181.7267248 1560.27394139 1182.54585684 1560.27404376 1183.38981105 C1560.27715513 1208.98350687 1560.28052162 1234.57720266 1560.28393555 1260.17089844 C1560.28743688 1286.4314626 1560.2909073 1312.69202676 1560.29419994 1338.95259094 C1560.29435223 1340.16540884 1560.29435223 1340.16540884 1560.2945076 1341.40272811 C1560.30085504 1392.02594692 1560.30477828 1442.64916544 1560.30605793 1493.27238464 C1560.30607796 1494.05403867 1560.30609799 1494.83569271 1560.30611862 1495.64103322 C1560.30699387 1529.96648024 1560.30731374 1564.29192725 1560.30702773 1598.61737428 C1560.30691345 1612.42579408 1560.30685738 1626.23421387 1560.30682441 1640.04263367 C1560.30681801 1642.33218762 1560.30680894 1644.62174157 1560.30679926 1646.91129552 C1560.30666271 1681.948683 1560.30801246 1716.98606953 1560.31384444 1752.02345657 C1560.31397011 1752.7795295 1560.31409579 1753.53560243 1560.31422527 1754.31458666 C1560.3162544 1766.4776583 1560.31839838 1778.64072991 1560.32055207 1790.80380152 C1560.32665846 1825.31823688 1560.33170646 1859.83267096 1560.3295809 1894.34710693 C1560.32953819 1895.04691721 1560.32949548 1895.74672748 1560.32945147 1896.46774412 C1560.32849828 1911.73254783 1560.32698265 1926.99735143 1560.32491475 1942.26215503 C1560.32409839 1948.34946407 1560.32335478 1954.43677313 1560.32263374 1960.52408218 C1560.32255309 1961.18811792 1560.32247244 1961.85215365 1560.32238934 1962.53631169 C1560.31978543 1984.26721175 1560.32393868 2005.99810462 1560.33130493 2027.7290034 C1560.3381754 2048.40909448 1560.33797544 2069.08917526 1560.33011279 2089.76926611 C1560.32571083 2101.91248827 1560.32685164 2114.0556802 1560.33597958 2126.1988999 C1560.34148844 2134.24650256 1560.33984682 2142.29408249 1560.3321968 2150.34168337 C1560.32805536 2154.9146556 1560.32712427 2159.48756803 1560.33494749 2164.06053679 C1560.34197765 2168.20352785 1560.33992952 2172.346408 1560.3304138 2176.48939319 C1560.32861295 2177.98098355 1560.33020362 2179.47258259 1560.33549992 2180.96416462 C1560.34217947 2182.98026923 1560.33542061 2184.99640511 1560.32794 2187.0125069 C1560.32797604 2188.13004997 1560.32801208 2189.24759305 1560.32804921 2190.39900106 C1560.07060997 2193.46850977 1559.45586541 2195.63470418 1558.078125 2198.37890625 C1556.22436523 2199.80908203 1556.22436523 2199.80908203 1554.078125 2200.37890625 C1547.09953806 2198.34111724 1542.68017959 2193.1303392 1538.515625 2187.50390625 C1530.78442629 2177.16723616 1530.78442629 2177.16723616 1520.078125 2170.37890625 C1517.25979824 2170.13383436 1514.58271217 2170.00877589 1511.765625 2170.00390625 C1510.66444336 2169.96716797 1510.66444336 2169.96716797 1509.54101562 2169.9296875 C1502.61302359 2169.89280378 1498.65430274 2172.08515392 1493.44140625 2176.7265625 C1490.85603673 2179.62815903 1488.55086933 2182.67972485 1486.265625 2185.81640625 C1482.42478186 2190.94856114 1478.60617844 2195.01400415 1473.078125 2198.37890625 C1472.31113281 2198.91386719 1471.54414062 2199.44882813 1470.75390625 2200 C1467.50715287 2201.67314444 1465.21692616 2201.81215531 1461.578125 2201.81640625 C1460.4746875 2201.83574219 1459.37125 2201.85507813 1458.234375 2201.875 C1451.84041666 2200.87000902 1448.55358555 2195.76654801 1444.890625 2190.87890625 C1444.45298828 2190.31042969 1444.01535156 2189.74195312 1443.56445312 2189.15625 C1441.82814443 2186.87121474 1440.23463477 2184.74017782 1439.08984375 2182.09765625 C1437.62268046 2179.60517808 1435.75185225 2179.37145536 1433.078125 2178.37890625 C1431.25125956 2177.02305083 1429.43978235 2175.64631929 1427.640625 2174.25390625 C1420.8407872 2169.65647897 1415.10744929 2168.91467906 1407.078125 2170.37890625 C1401.75834832 2172.32368947 1397.91426055 2175.23587985 1394.078125 2179.37890625 C1393.418125 2179.37890625 1392.758125 2179.37890625 1392.078125 2179.37890625 C1391.7996875 2179.9615625 1391.52125 2180.54421875 1391.234375 2181.14453125 C1386.81377278 2189.68704635 1379.11688994 2197.74584928 1370.078125 2201.37890625 C1363.94062771 2202.50295357 1358.93363125 2201.80060302 1353.515625 2198.69140625 C1348.63035667 2195.27033056 1345.23867911 2191.08668301 1341.7902832 2186.3046875 C1336.86774985 2179.51742428 1330.36320997 2171.72493481 1321.81640625 2169.89453125 C1313.06944247 2168.93673167 1305.91644763 2169.91793547 1298.60546875 2175.0703125 C1294.50577779 2178.81516158 1291.14490645 2183.15470725 1287.77050781 2187.55322266 C1282.95154089 2193.80417078 1277.21926434 2200.51982986 1269.0625 2201.8828125 C1260.96881096 2202.0294373 1256.06368931 2200.91898009 1250.078125 2195.37890625 C1246.45625556 2191.75012484 1243.21094919 2187.90235947 1240.15234375 2183.7890625 C1235.09798016 2177.05328738 1229.91367213 2171.87588992 1221.53515625 2169.7265625 C1214.83285962 2168.80174948 1208.28345325 2169.03917401 1202.69140625 2173.12109375 C1200.39422896 2175.13349699 1198.22362561 2177.20599961 1196.078125 2179.37890625 C1195.25183594 2180.178125 1194.42554688 2180.97734375 1193.57421875 2181.80078125 C1191.1098537 2184.34613482 1189.02549311 2186.99261259 1186.890625 2189.81640625 C1181.98956548 2195.81109062 1177.05777964 2200.51730388 1169.2109375 2201.875 C1163.31418504 2202.13867592 1159.54424064 2201.456664 1155.078125 2197.37890625 C1150.83211235 2193.01136193 1146.78450998 2188.57283769 1143.390625 2183.50390625 C1140.89804196 2180.13555079 1138.62652493 2178.55139601 1135.078125 2176.37890625 C1134.00239636 2175.499002 1132.9397343 2174.60288488 1131.890625 2173.69140625 C1126.8183325 2169.52085464 1121.26517961 2169.8134951 1114.9375 2169.9921875 C1106.17871407 2170.86983913 1101.22824731 2175.78551534 1095.765625 2182.31640625 C1093.17806599 2185.51156426 1090.7820101 2188.7818206 1088.578125 2192.25390625 C1084.76638651 2197.64063391 1079.29619167 2200.79770391 1072.85546875 2201.9609375 C1066.16651515 2202.29734101 1061.44011396 2201.41495878 1056.125 2197.2734375 C1050.81875655 2192.36212438 1046.43024537 2186.83395411 1042.015625 2181.12890625 C1038.08512402 2176.15388237 1034.21592354 2172.4248391 1028.078125 2170.37890625 C1014.6641696 2169.35176757 1014.6641696 2169.35176757 1003.078125 2175.37890625 C1002.418125 2175.37890625 1001.758125 2175.37890625 1001.078125 2175.37890625 C1000.80355469 2175.9630127 1000.52898437 2176.54711914 1000.24609375 2177.14892578 C995.3627759 2186.47255145 986.31490816 2198.09869864 976.078125 2201.37890625 C970.35621159 2202.66672234 966.10928943 2202.64314906 961.046875 2199.4921875 C958.26308069 2197.22848379 955.67301506 2194.85491509 953.078125 2192.37890625 C951.80001953 2191.39083984 951.80001953 2191.39083984 950.49609375 2190.3828125 C947.98420197 2188.30106697 946.25935973 2186.18677817 944.328125 2183.56640625 C940.13208879 2178.17378176 935.24578369 2173.46273559 929.078125 2170.37890625 C917.39879626 2169.13876247 911.05236841 2171.64929688 902.078125 2178.75390625 C901.418125 2179.29015625 900.758125 2179.82640625 900.078125 2180.37890625 C899.418125 2180.37890625 898.758125 2180.37890625 898.078125 2180.37890625 C897.81 2180.94996094 897.541875 2181.52101563 897.265625 2182.109375 C892.7324135 2190.77317725 885.79178695 2197.02207527 877.078125 2201.37890625 C870.94398878 2202.17702806 866.16751734 2201.74708769 861.078125 2198.125 C856.30595922 2193.95867558 852.30520045 2189.06294103 848.26953125 2184.19921875 C842.73761917 2177.63246862 836.57676222 2170.93381459 827.671875 2170.03515625 C819.74103858 2169.62102608 813.42598115 2169.86725875 806.79296875 2174.71484375 C802.60533493 2178.82414773 799.23041488 2183.48531949 795.796875 2188.23022461 C791.90620803 2193.5464929 788.11758146 2197.50429082 782.078125 2200.37890625 C781.088125 2200.87390625 781.088125 2200.87390625 780.078125 2201.37890625 C773.05755804 2202.14558283 767.19514822 2201.91937239 761.1640625 2198.0546875 C755.77465288 2193.72499325 751.73517244 2188.26977935 747.640625 2182.75390625 C743.75299006 2177.64802626 738.85154871 2173.26561811 733.078125 2170.37890625 C730.45951765 2170.22777686 727.88521618 2170.14756763 725.265625 2170.12890625 C724.19731445 2170.09796875 724.19731445 2170.09796875 723.10742188 2170.06640625 C714.17617589 2170.00031007 709.19085549 2175.49843841 703.078125 2181.37890625 C701.27906813 2183.33703762 699.5490214 2185.33972525 697.82421875 2187.36328125 C686.26488924 2200.70693679 686.26488924 2200.70693679 678.18359375 2201.75390625 C673.56379379 2201.93619182 670.03299506 2201.79328382 665.765625 2199.94140625 C662.71428316 2197.03198728 660.24326285 2193.91476058 657.72265625 2190.54296875 C655.70524438 2187.88822724 653.52179939 2185.64803247 651.078125 2183.37890625 C650.42070313 2182.75113281 649.76328125 2182.12335937 649.0859375 2181.4765625 C641.90047441 2174.80079489 636.15418785 2170.17843399 626.078125 2169.69140625 C616.46180463 2170.09423815 611.78211213 2174.37311928 605.453125 2181.19140625 C602.66401109 2184.39479269 600.12092549 2187.68436717 597.640625 2191.12890625 C593.16047553 2196.90081507 588.15338522 2200.65100436 580.86328125 2201.953125 C574.32670599 2202.29635241 569.47968887 2201.52080525 564.26171875 2197.48046875 C559.75904249 2193.14694491 555.93921626 2188.276057 552.078125 2183.37890625 C549.84655938 2180.5940221 547.58447802 2177.92047734 545.078125 2175.37890625 C544.29888672 2174.58806641 544.29888672 2174.58806641 543.50390625 2173.78125 C537.28445357 2168.76375896 528.70770939 2169.25383947 521.13232422 2170.03710938 C511.78408574 2171.59255671 506.12381788 2180.55575424 500.7175293 2187.60351562 C495.89393832 2193.88512088 490.18101444 2200.47724333 482.02734375 2201.91796875 C472.1392845 2202.17849247 472.1392845 2202.17849247 467.890625 2198.44140625 C466.60892805 2197.09751725 465.33879512 2195.74253947 464.078125 2194.37890625 C462.39929706 2192.910598 460.71135552 2191.45266101 459.015625 2190.00390625 C455.76620786 2187.10069794 453.10834377 2184.23371253 450.578125 2180.69140625 C446.08597609 2174.75051326 441.16249749 2171.12587238 433.74609375 2169.76953125 C424.52029521 2169.24059903 418.42338891 2171.99310916 411.078125 2177.37890625 C410.21960938 2178.00539063 409.36109375 2178.631875 408.4765625 2179.27734375 C405.87106034 2181.56034076 404.18112453 2183.87460801 402.265625 2186.75390625 C398.73295187 2191.752972 395.20075469 2195.09774475 390.078125 2198.37890625 C389.294375 2198.99765625 388.510625 2199.61640625 387.703125 2200.25390625 C383.45144136 2202.07605638 379.61566768 2202.17365549 375.078125 2201.37890625 C367.78219614 2198.43820023 363.1689017 2192.28827471 358.4375 2186.28125 C354.84938356 2181.86739153 350.94085615 2178.11422323 346.453125 2174.62890625 C345.69773437 2174.0359375 344.94234375 2173.44296875 344.1640625 2172.83203125 C338.44321171 2168.84671946 330.73540787 2169.79733478 324.078125 2170.37890625 C313.66826971 2173.45830067 307.30485896 2183.92037617 301.03515625 2192.1171875 C297.08522402 2196.68207924 292.16678042 2200.81360857 286.1328125 2201.91796875 C277.3154558 2202.15627569 271.64249191 2200.35092645 265.078125 2194.37890625 C261.39351716 2190.30473061 258.25397435 2185.85113617 255.078125 2181.37890625 C250.78748002 2175.58527604 245.59278565 2171.56443546 238.51953125 2169.70703125 C230.09478737 2168.60300865 222.57798877 2170.15646271 215.60546875 2175.0703125 C211.50577779 2178.81516158 208.14490645 2183.15470725 204.77050781 2187.55322266 C200.02886469 2193.70386981 194.25360993 2200.60571806 186.17578125 2201.8125 C179.95565095 2201.82050532 175.83177988 2201.80091079 171.078125 2197.37890625 C167.9299603 2194.03012321 165.00264148 2190.50685268 162.08984375 2186.953125 C155.63128411 2179.36107043 148.33379 2171.62877035 138.2265625 2169.609375 C131.10340662 2169.30246548 125.62640501 2170.04028224 119.98828125 2174.55078125 C115.98094858 2178.38601988 112.51270889 2182.46809967 109.18359375 2186.90234375 C104.28890915 2193.33204778 99.32298634 2197.75647558 92.078125 2201.37890625 C84.69103144 2202.21618084 78.38639187 2202.27110727 72.33984375 2197.6328125 C68.30648067 2193.61338159 64.93340748 2189.09829565 61.55859375 2184.5234375 C59.64916666 2181.9723721 57.67891389 2180.24007685 55.078125 2178.37890625 C55.078125 2177.71890625 55.078125 2177.05890625 55.078125 2176.37890625 C54.541875 2176.13140625 54.005625 2175.88390625 53.453125 2175.62890625 C51.078125 2174.37890625 51.078125 2174.37890625 48.4453125 2172.33984375 C42.34116725 2168.7849935 34.93184336 2169.38069453 28.078125 2170.37890625 C19.82776314 2172.85509611 15.19528382 2179.43511579 10.40234375 2186.16015625 C4.93398757 2193.73314028 -0.49679784 2200.2107104 -10.14453125 2201.96484375 C-16.83104217 2202.29330394 -21.5562707 2201.41649296 -26.87109375 2197.27734375 C-31.99228633 2192.53658262 -36.26462358 2187.2783007 -40.421875 2181.69140625 C-45.26179362 2175.42798216 -50.51986042 2170.88725694 -58.5 2169.56640625 C-66.18543592 2168.97140476 -72.06824066 2169.70045942 -78.36328125 2174.3203125 C-79.921875 2175.37890625 -79.921875 2175.37890625 -81.921875 2175.37890625 C-82.17582031 2175.9409375 -82.42976563 2176.50296875 -82.69140625 2177.08203125 C-85.12110928 2181.6174769 -88.65930105 2185.42355343 -91.921875 2189.37890625 C-92.53933594 2190.1575 -93.15679687 2190.93609375 -93.79296875 2191.73828125 C-97.07515146 2195.74415236 -99.51869852 2198.64210946 -104.921875 2199.37890625 C-105.911875 2198.71890625 -106.901875 2198.05890625 -107.921875 2197.37890625 C-108.27590942 2195.52041626 -108.27590942 2195.52041626 -108.24658203 2193.22509766 C-108.24317307 2192.35919006 -108.2397641 2191.49328247 -108.23625183 2190.60113525 C-108.2175856 2189.65381531 -108.19891937 2188.70649536 -108.1796875 2187.73046875 C-108.17266312 2186.74222107 -108.16563873 2185.75397339 -108.15840149 2184.73577881 C-108.14214514 2182.60315332 -108.11935304 2180.47056989 -108.09078979 2178.33807373 C-108.01722708 2172.75293053 -107.99320449 2167.16755638 -107.96484375 2161.58203125 C-107.95802078 2160.461987 -107.95119781 2159.34194275 -107.94416809 2158.18795776 C-107.89301089 2148.03669005 -108.06197457 2137.9003663 -108.359375 2127.75390625 C-108.37929504 2127.00941223 -108.39921509 2126.26491821 -108.41973877 2125.49786377 C-108.60350613 2118.71701841 -108.94934011 2112.10176131 -109.921875 2105.37890625 C-110.13638965 2102.79019276 -110.32576741 2100.21329264 -110.47265625 2097.62109375 C-110.51449539 2096.88897675 -110.55633453 2096.15685974 -110.59944153 2095.40255737 C-111.01292071 2087.57148251 -111.10797537 2079.74558088 -111.10717773 2071.90478516 C-111.10936772 2069.5118639 -111.12764118 2067.11940332 -111.14648438 2064.7265625 C-111.14942018 2063.13411609 -111.15140372 2061.54166759 -111.15234375 2059.94921875 C-111.15952927 2059.26940948 -111.16671478 2058.58960022 -111.17411804 2057.88919067 C-111.15517623 2053.5519191 -110.79057937 2049.3588454 -110.20096495 2045.06158357 C-108.14415861 2029.04101556 -108.64935953 2012.81563597 -108.68354398 1996.69654694 C-108.69138052 1991.93853049 -108.68744779 1987.18052061 -108.68505484 1982.42250031 C-108.68245855 1974.09751382 -108.6872311 1965.7725574 -108.6969223 1957.44757652 C-108.71129298 1945.06792884 -108.71408032 1932.68829718 -108.71450464 1920.30864212 C-108.71552387 1899.47644374 -108.72569792 1878.64425941 -108.74098015 1857.81206703 C-108.75605443 1837.18210146 -108.76652921 1816.55214132 -108.77105904 1795.92217064 C-108.77134164 1794.63788253 -108.77162424 1793.35359442 -108.77191541 1792.03038849 C-108.77332003 1785.50742947 -108.7746321 1778.98447044 -108.7759015 1772.4615114 C-108.77851042 1759.19858238 -108.78176426 1745.93565353 -108.78524876 1732.67272472 C-108.78542235 1732.00922257 -108.78559595 1731.34572042 -108.78577481 1730.66211214 C-108.79407401 1699.10968434 -108.80892442 1667.5572603 -108.82487056 1636.00483557 C-108.825928 1633.9123105 -108.82698354 1631.81978542 -108.82803844 1629.72726035 C-108.82944648 1626.93424551 -108.83085493 1624.14123068 -108.83226384 1621.34821584 C-108.83543961 1615.0518826 -108.8386128 1608.75554935 -108.8417779 1602.4592161 C-108.84248237 1601.05809748 -108.84318733 1599.65697886 -108.84389281 1598.25586024 C-108.86011868 1566.01958643 -108.87392779 1533.78331179 -108.88662624 1501.54703641 C-108.88745095 1499.45441116 -108.88827832 1497.36178591 -108.88910607 1495.26916066 C-108.90156387 1463.73767701 -108.9128092 1432.20619323 -108.92170811 1400.67470837 C-108.92208728 1399.33595336 -108.92246647 1397.99719835 -108.92284566 1396.65844334 C-108.92621634 1384.73580993 -108.92953065 1372.8131765 -108.9325958 1360.89054301 C-108.94024176 1331.16288643 -108.9508508 1301.4352359 -108.96878462 1271.7075836 C-108.98126931 1250.99587024 -108.99052908 1230.28415783 -108.99634998 1209.5724415 C-108.99993928 1197.26923724 -109.00641205 1184.96604205 -109.01694613 1172.66284174 C-109.02371615 1164.44212542 -109.02685095 1156.22141287 -109.02705848 1148.00069377 C-109.02728617 1143.31884689 -109.02909868 1138.63701568 -109.03540062 1133.9551727 C-109.04111712 1129.68846213 -109.04212867 1125.42177624 -109.03953232 1121.15506287 C-109.03940503 1119.62851538 -109.040932 1118.10196652 -109.04440625 1116.57542298 C-109.06173465 1108.53557559 -108.84516526 1100.56534551 -108.2819176 1092.54022444 C-107.72861014 1084.20049454 -107.78960695 1075.86208281 -107.80720711 1067.50770187 C-107.80737807 1065.64328588 -107.80710551 1063.7788698 -107.80643421 1061.91445392 C-107.80586163 1056.81239022 -107.81151593 1051.71034991 -107.81821289 1046.60829128 C-107.82437779 1041.04970596 -107.82463378 1035.49111981 -107.82563293 1029.9325316 C-107.82817583 1020.19764408 -107.83439952 1010.46276441 -107.84304428 1000.72788048 C-107.85586226 986.25232041 -107.86285146 971.77676065 -107.86850125 957.3011964 C-107.87120852 950.39659749 -107.87421134 943.49199871 -107.87731338 936.58739996 C-107.87762536 935.89220367 -107.87793734 935.19700737 -107.87825877 934.48074452 C-107.88517688 919.22724232 -107.89498244 903.97374223 -107.90492658 888.72024175 C-107.92805364 853.2175431 -107.94235279 817.71484544 -107.95337816 782.21214115 C-107.95771259 768.27276412 -107.9623296 754.33338719 -107.96692283 740.39401024 C-107.96769584 738.04603049 -107.96846619 735.69805074 -107.96923623 733.35007099 C-107.98108409 697.27618717 -107.9950443 661.20230428 -108.01020388 625.1284217 C-108.01123072 622.68347472 -108.01225379 620.23852774 -108.01327642 617.79358076 C-108.02906077 580.11525401 -108.0470002 542.43692928 -108.06958008 504.75860596 C-108.07006565 503.94749499 -108.07055121 503.13638402 -108.07105149 502.30069393 C-108.07644132 493.30191548 -108.08187487 484.30313705 -108.08732592 475.30435863 C-108.08781563 474.49588897 -108.08830535 473.68741931 -108.08880991 472.85445056 C-108.0912816 468.77492224 -108.09375599 464.69539391 -108.09623359 460.61586558 C-108.11858954 423.76672479 -108.13884674 386.91758571 -108.14964104 350.06843948 C-108.14998262 348.90733734 -108.14998262 348.90733734 -108.15033111 347.72277859 C-108.15508249 331.49581832 -108.15921269 315.26885797 -108.16252796 299.04189734 C-108.16408292 291.44410229 -108.16578311 283.84630727 -108.16756821 276.24851227 C-108.16774153 275.500474 -108.16791485 274.75243573 -108.16809342 273.98172964 C-108.1737551 249.86647307 -108.18941545 225.75123551 -108.21045796 201.63598783 C-108.2316088 177.36440488 -108.24370144 153.09283664 -108.24292818 128.8212439 C-108.24246447 113.7551161 -108.25019263 98.68903996 -108.27140442 83.62292506 C-108.28410518 74.02509727 -108.28605106 64.42730731 -108.27904627 54.82947375 C-108.27536513 49.35115717 -108.27656965 43.87295561 -108.29084577 38.39465389 C-108.30372225 33.41922712 -108.3030031 28.44400207 -108.2910536 23.46857468 C-108.2891913 21.67203008 -108.29244986 19.87547171 -108.30122874 18.0789476 C-108.31236581 15.65288621 -108.30523826 13.22755849 -108.29331982 10.80151725 C-108.30096459 10.09947162 -108.30860936 9.39742598 -108.31648578 8.67410624 C-108.27285866 4.62600829 -107.75753718 2.32843795 -104.921875 -0.62109375 C-98.45547093 -0.45943365 -95.2422167 3.02144821 -90.921875 7.37890625 C-89.05380806 9.36810144 -87.1987039 11.36362793 -85.359375 13.37890625 C-84.88411377 13.8994458 -84.40885254 14.41998535 -83.91918945 14.95629883 C-81.93556878 17.13742137 -79.96723424 19.32587666 -78.05078125 21.56640625 C-73.53033912 26.59634665 -68.48606033 28.8479301 -61.921875 30.37890625 C-55.43877742 30.51121436 -48.62857644 26.65311859 -43.74609375 22.55078125 C-39.84055748 18.69832994 -36.29406496 14.53065399 -32.6953125 10.39453125 C-23.27803072 -0.30881104 -14.01170727 -7.94379579 0 0 Z " fill="#FEFEFE" transform="translate(187.921875,84.62109375)"/>
<path d="M0 0 C0.33 0 0.66 0 1 0 C1.02465288 4.68139254 1.04283739 9.36274759 1.05493164 14.04418945 C1.05997157 15.63794614 1.0668035 17.23169819 1.07543945 18.82543945 C1.08751999 21.11150253 1.09323155 23.39750467 1.09765625 25.68359375 C1.10281754 26.40026718 1.10797882 27.11694061 1.11329651 27.85533142 C1.11349263 29.57063672 1.06192007 31.28581266 1 33 C0.505 33.495 0.505 33.495 0 34 C-0.10064545 36.23247011 -0.12870445 38.4682037 -0.13061053 40.70294052 C-0.13258304 41.41670104 -0.13455555 42.13046156 -0.13658784 42.86585119 C-0.14204853 45.29274123 -0.14029783 47.71957513 -0.1386652 50.14647007 C-0.14110975 51.89740531 -0.14399275 53.64833998 -0.14727798 55.39927384 C-0.15509899 60.25614979 -0.15662215 65.11301124 -0.1572054 69.96989272 C-0.15892567 75.23656824 -0.16640601 80.50323593 -0.17318195 85.76990694 C-0.18427115 95.01539652 -0.19162323 104.26088335 -0.19658089 113.50637817 C-0.20396949 127.25425156 -0.21704852 141.00211534 -0.23132664 154.74998309 C-0.2551779 177.87223528 -0.27437214 200.99448853 -0.29092598 224.1167469 C-0.30733886 247.0223724 -0.32581164 269.92799472 -0.34705925 292.83361626 C-0.34771764 293.54440172 -0.34837604 294.25518717 -0.34905439 294.98751159 C-0.35506872 301.47923308 -0.36110852 307.97095455 -0.36717889 314.46267599 C-0.38227032 330.6019478 -0.39704216 346.7412199 -0.41159725 362.88049221 C-0.41226039 363.61552161 -0.41292353 364.35055102 -0.41360676 365.10785404 C-0.44585388 400.88187786 -0.47441938 436.65590449 -0.50268555 472.42993164 C-0.51249927 484.84771731 -0.52232925 497.26550297 -0.53222656 509.68328857 C-0.53284036 510.45341792 -0.53345416 511.22354727 -0.53408656 512.01701388 C-0.56263107 547.80373437 -0.59378721 583.59045244 -0.62561907 619.37717014 C-0.62768502 621.6998456 -0.62974984 624.02252107 -0.63181442 626.34519654 C-0.64549811 641.73740528 -0.65922685 657.12961398 -0.67298577 672.52182265 C-0.7003633 703.14973278 -0.72747605 733.77764315 -0.75440695 764.40555368 C-0.75568953 765.86420679 -0.7569723 767.32285989 -0.75825526 768.781513 C-0.83221577 852.87293933 -0.90102824 936.96436983 -1 1060 C-1.33 1060 -1.66 1060 -2 1060 C-2.01510547 972.80992359 -2.03006695 885.61984683 -2.04234314 763.33256531 C-2.04248259 761.85517411 -2.04262204 760.37778292 -2.04276149 758.90039172 C-2.04568405 727.89096109 -2.04840078 696.88153045 -2.05087968 665.87209978 C-2.05212509 650.29551102 -2.05341007 634.71892225 -2.05473244 619.14233349 C-2.05493169 616.79263378 -2.05512981 614.44293406 -2.05532788 612.09323434 C-2.0583886 575.90238628 -2.06229881 539.71153856 -2.06866455 503.52069092 C-2.06880145 502.74229411 -2.06893835 501.9638973 -2.0690794 501.16191272 C-2.07129182 488.61149877 -2.07357541 476.06108484 -2.07586844 463.51067092 C-2.08247034 427.37062767 -2.08854784 391.23058468 -2.09113979 355.09054089 C-2.0912201 353.9762337 -2.0912201 353.9762337 -2.09130202 352.83941526 C-2.09246767 336.53330657 -2.09336257 320.22719788 -2.09400098 303.92108916 C-2.09426261 297.36049587 -2.09456323 290.79990259 -2.09487724 284.23930931 C-2.09491067 283.52127187 -2.0949441 282.80323442 -2.09497854 282.06343827 C-2.09607576 258.9113907 -2.10034945 235.75934505 -2.10628221 212.60729826 C-2.11240746 188.64595278 -2.11501617 164.68460995 -2.11350138 140.7232636 C-2.11273839 126.89814436 -2.11478996 113.07303207 -2.12079754 99.24791408 C-2.12453252 90.02609654 -2.12467422 80.80428359 -2.12183181 71.58246574 C-2.12031434 66.31948036 -2.12041819 61.05650818 -2.12488318 55.79352418 C-2.128909 51.01214035 -2.12839015 46.23078009 -2.12413998 41.44939665 C-2.12342172 39.72415993 -2.12440484 37.99892151 -2.12723524 36.27368696 C-2.13082115 33.94132178 -2.12829769 31.60904132 -2.1241985 29.27667886 C-2.12435448 27.98219566 -2.12451046 26.68771246 -2.12467116 25.35400249 C-2.01576624 22.42415591 -1.6597763 19.84541991 -1 17 C-0.86494944 15.60019537 -0.75863273 14.19726957 -0.68359375 12.79296875 C-0.62075195 11.66665039 -0.62075195 11.66665039 -0.55664062 10.51757812 C-0.51732422 9.74865234 -0.47800781 8.97972656 -0.4375 8.1875 C-0.39431641 7.39923828 -0.35113281 6.61097656 -0.30664062 5.79882812 C-0.20121679 3.86605785 -0.10016906 1.93304974 0 0 Z " fill="#F3FFFF" transform="translate(1747,113)"/>
<path d="M0 0 C0.97066406 -0.01417969 1.94132812 -0.02835938 2.94140625 -0.04296875 C5.4375 0.1875 5.4375 0.1875 7.4375 2.1875 C6.45910156 2.19007813 5.48070312 2.19265625 4.47265625 2.1953125 C-5.29082875 2.48332091 -11.34990966 3.95248992 -18.37890625 11.01171875 C-20.92693806 13.82196412 -23.24676588 16.77803232 -25.5625 19.78125 C-29.22679448 24.50041713 -32.29568285 28.29075057 -37.5625 31.1875 C-37.8925 30.1975 -38.2225 29.2075 -38.5625 28.1875 C-36.9125 27.8575 -35.2625 27.5275 -33.5625 27.1875 C-32.5725 23.7225 -32.5725 23.7225 -31.5625 20.1875 C-30.5725 20.1875 -29.5825 20.1875 -28.5625 20.1875 C-28.5625 18.8675 -28.5625 17.5475 -28.5625 16.1875 C-27.9025 15.8575 -27.2425 15.5275 -26.5625 15.1875 C-26.2325 14.1975 -25.9025 13.2075 -25.5625 12.1875 C-19.21575181 5.08380019 -9.50097713 0.06325551 0 0 Z " fill="#C7D5E3" transform="translate(322.5625,2251.8125)"/>
<path d="M0 0 C8.11835767 -0.75324968 13.35647816 0.01506597 20.234375 4.4921875 C20.81703125 4.98976563 21.3996875 5.48734375 22 6 C22 6.66 22 7.32 22 8 C19.0280615 6.87548273 16.66559313 5.77706209 14 4 C5.23461725 2.92967691 -1.93312241 3.49313954 -9 9 C-10.36794747 10.29779632 -11.71889593 11.6164076 -13 13 C-13.66 13 -14.32 13 -15 13 C-15.27070312 13.57492188 -15.54140625 14.14984375 -15.8203125 14.7421875 C-17.01715435 17.03283183 -18.34670657 19.04240326 -19.875 21.125 C-20.36742187 21.80820313 -20.85984375 22.49140625 -21.3671875 23.1953125 C-23.11044971 25.122076 -24.62196759 26.00143228 -27 27 C-27 26.34 -27 25.68 -27 25 C-26.34 25 -25.68 25 -25 25 C-25 24.01 -25 23.02 -25 22 C-24.01 22 -23.02 22 -22 22 C-21.67 20.02 -21.34 18.04 -21 16 C-20.01 16 -19.02 16 -18 16 C-18 15.01 -18 14.02 -18 13 C-14.2189788 8.00365056 -9.15154889 5.92248418 -3.546875 3.33203125 C-0.88398942 2.25573968 -0.88398942 2.25573968 0 0 Z " fill="#2A347D" transform="translate(1595,2251)"/>
<path d="M0 0 C0.69480469 -0.00193359 1.38960937 -0.00386719 2.10546875 -0.00585938 C4.07421875 0.05859375 4.07421875 0.05859375 7.3125 0.5625 C7.9725 1.5525 8.6325 2.5425 9.3125 3.5625 C8.11753906 3.50449219 6.92257812 3.44648438 5.69140625 3.38671875 C-6.91483175 2.74873313 -6.91483175 2.74873313 -17.6875 8.5625 C-22.65019533 13.42521429 -26.78489762 18.83055276 -30.6875 24.5625 C-31.75 22.75 -31.75 22.75 -32.6875 20.5625 C-32.1925 19.0775 -32.1925 19.0775 -31.6875 17.5625 C-30.3675 17.5625 -29.0475 17.5625 -27.6875 17.5625 C-27.6875 16.2425 -27.6875 14.9225 -27.6875 13.5625 C-27.0275 13.5625 -26.3675 13.5625 -25.6875 13.5625 C-25.0275 12.2425 -24.3675 10.9225 -23.6875 9.5625 C-23.0275 9.5625 -22.3675 9.5625 -21.6875 9.5625 C-21.6875 8.5725 -21.6875 7.5825 -21.6875 6.5625 C-14.3965169 2.36768781 -8.38384416 -0.02286503 0 0 Z " fill="#717B98" transform="translate(520.6875,2251.4375)"/>
<path d="M0 0 C0.495 1.485 0.495 1.485 1 3 C-2.24929004 9.07220265 -8.72613993 13.56780493 -15 16 C-21.0730731 16.94486054 -26.84636744 17.0760827 -32.3125 14 C-33.199375 13.34 -34.08625 12.68 -35 12 C-35 11.67 -35 11.34 -35 11 C-34.29875 11.0721875 -33.5975 11.144375 -32.875 11.21875 C-20.04805051 12.79745801 -20.04805051 12.79745801 -8 9 C-6.10773157 7.11731267 -4.61595613 5.13876546 -3 3 C-2.34 3 -1.68 3 -1 3 C-0.67 2.01 -0.34 1.02 0 0 Z " fill="#ADBDD0" transform="translate(787,2270)"/>
<path d="M0 0 C9.96144899 -0.40999866 17.6479633 -0.00302638 26 6 C26 6.66 26 7.32 26 8 C26.99 8.33 27.98 8.66 29 9 C29.495 10.485 29.495 10.485 30 12 C26.74595105 10.54230386 24.35895358 8.6424086 21.625 6.375 C16.25983196 2.60039063 11.88628825 2.04004832 5.40625 2.37109375 C0.05465613 3.35917473 -3.70423459 5.77424209 -8 9 C-9.20418892 9.79795651 -10.41187276 10.59069913 -11.625 11.375 C-12.40875 11.91125 -13.1925 12.4475 -14 13 C-14 11.68 -14 10.36 -14 9 C-12.9275 8.401875 -11.855 7.80375 -10.75 7.1875 C-8.59833472 5.96851221 -6.70900388 4.77366969 -4.75 3.25 C-3 2 -3 2 0 2 C0 1.34 0 0.68 0 0 Z " fill="#6682AF" transform="translate(1101,2252)"/>
<path d="M0 0 C0.99 0.33 1.98 0.66 3 1 C-6.74186712 11.54135166 -6.74186712 11.54135166 -14.19140625 12.34375 C-23.00928431 12.58020707 -23.00928431 12.58020707 -26.39453125 10.59765625 C-26.92433594 10.07042969 -27.45414063 9.54320313 -28 9 C-28 8.34 -28 7.68 -28 7 C-27.01 7 -26.02 7 -25 7 C-25 7.66 -25 8.32 -25 9 C-20.05 9 -15.1 9 -10 9 C-10 8.34 -10 7.68 -10 7 C-7 5 -7 5 -3 5 C-3 4.01 -3 3.02 -3 2 C-2.01 2 -1.02 2 0 2 C0 1.34 0 0.68 0 0 Z " fill="#BFCEDC" transform="translate(684,2274)"/>
<path d="M0 0 C1.97806641 -0.00773437 1.97806641 -0.00773437 3.99609375 -0.015625 C7.1989784 0.22292501 8.91108447 0.5411593 11.5625 2.25 C10.69109375 2.24097656 9.8196875 2.23195313 8.921875 2.22265625 C-0.62389678 2.46026745 -6.65532944 4.82378446 -14.4375 10.25 C-15.4275 10.91 -16.4175 11.57 -17.4375 12.25 C-17.4375 10.93 -17.4375 9.61 -17.4375 8.25 C-16.4475 8.25 -15.4575 8.25 -14.4375 8.25 C-14.4375 6.93 -14.4375 5.61 -14.4375 4.25 C-13.1175 4.25 -11.7975 4.25 -10.4375 4.25 C-10.4375 3.59 -10.4375 2.93 -10.4375 2.25 C-6.82740719 -0.15672854 -4.16774719 -0.04795107 0 0 Z " fill="#798BC6" transform="translate(613.4375,2251.75)"/>
<path d="M0 0 C0.82371094 0.73476562 0.82371094 0.73476562 1.6640625 1.484375 C0.601875 1.49855469 -0.4603125 1.51273438 -1.5546875 1.52734375 C-9.92528157 1.76574049 -15.52084155 2.16860016 -22.3359375 7.484375 C-22.9959375 7.484375 -23.6559375 7.484375 -24.3359375 7.484375 C-24.3359375 6.494375 -24.3359375 5.504375 -24.3359375 4.484375 C-23.6759375 4.484375 -23.0159375 4.484375 -22.3359375 4.484375 C-22.3359375 3.494375 -22.3359375 2.504375 -22.3359375 1.484375 C-16.78271995 -2.21777004 -5.83749193 -3.78753657 0 0 Z " fill="#9BA6C7" transform="translate(230.3359375,2252.515625)"/>
<path d="M0 0 C0.66 0 1.32 0 2 0 C1.01971891 6.88617207 -3.04836404 11.58143541 -8.3359375 15.9140625 C-14.24430625 19.8467622 -18.97733225 20.8068597 -26 20 C-26 19.67 -26 19.34 -26 19 C-25.31292969 18.89042969 -24.62585937 18.78085938 -23.91796875 18.66796875 C-23.01691406 18.50941406 -22.11585937 18.35085937 -21.1875 18.1875 C-20.29417969 18.03667969 -19.40085937 17.88585938 -18.48046875 17.73046875 C-15.76861295 16.93185925 -14.86726938 16.04096886 -13 14 C-10.3125 13.3125 -10.3125 13.3125 -8 13 C-8 11.35 -8 9.7 -8 8 C-7.360625 7.896875 -6.72125 7.79375 -6.0625 7.6875 C-5.0415625 7.3471875 -5.0415625 7.3471875 -4 7 C-3.67 6.01 -3.34 5.02 -3 4 C-2.34 4 -1.68 4 -1 4 C-0.67 2.68 -0.34 1.36 0 0 Z " fill="#93ABC3" transform="translate(1280,2266)"/>
<path d="M0 0 C0.66 0.66 1.32 1.32 2 2 C0.78763672 2.05607422 0.78763672 2.05607422 -0.44921875 2.11328125 C-1.51785156 2.17902344 -2.58648438 2.24476563 -3.6875 2.3125 C-4.74324219 2.37050781 -5.79898438 2.42851562 -6.88671875 2.48828125 C-12.21671816 3.36435393 -15.57931824 6.32705911 -19.5 9.875 C-20.27214844 10.57367187 -21.04429687 11.27234375 -21.83984375 11.9921875 C-24.29227359 14.27166116 -26.67057691 16.59543423 -29 19 C-28.67 17.68 -28.34 16.36 -28 15 C-27.34 15 -26.68 15 -26 15 C-26 13.68 -26 12.36 -26 11 C-24.1015625 9.1484375 -24.1015625 9.1484375 -21.625 7.375 C-18.16403577 4.86278569 -18.16403577 4.86278569 -15 2 C-10.16174113 -0.12411365 -5.22841011 -0.71106377 0 0 Z " fill="#555F99" transform="translate(915,2252)"/>
<path d="M0 0 C0.55171875 0.48855469 1.1034375 0.97710938 1.671875 1.48046875 C-0.04708984 1.51914063 -0.04708984 1.51914063 -1.80078125 1.55859375 C-3.3307653 1.61491218 -4.86071175 1.67225865 -6.390625 1.73046875 C-7.14279297 1.74464844 -7.89496094 1.75882813 -8.66992188 1.7734375 C-14.30208162 2.01725394 -17.61926577 3.38521861 -22.328125 6.48046875 C-23.318125 6.97546875 -23.318125 6.97546875 -24.328125 7.48046875 C-24.328125 6.49046875 -24.328125 5.50046875 -24.328125 4.48046875 C-23.668125 4.48046875 -23.008125 4.48046875 -22.328125 4.48046875 C-21.998125 3.16046875 -21.668125 1.84046875 -21.328125 0.48046875 C-14.85872202 -1.47255856 -6.02817337 -3.93449571 0 0 Z " fill="#8190AD" transform="translate(1706.328125,2252.51953125)"/>
<path d="M0 0 C0.99 0.33 1.98 0.66 3 1 C1.96552734 1.54914062 1.96552734 1.54914062 0.91015625 2.109375 C-7.31910966 6.85051586 -11.81947179 12.21002054 -17 20 C-17.66 18.68 -18.32 17.36 -19 16 C-17.68 15.34 -16.36 14.68 -15 14 C-15 12.68 -15 11.36 -15 10 C-14.01 10 -13.02 10 -12 10 C-12 9.01 -12 8.02 -12 7 C-11.01 7 -10.02 7 -9 7 C-8.67 5.35 -8.34 3.7 -8 2 C-7.05125 1.855625 -6.1025 1.71125 -5.125 1.5625 C-2.1065506 1.17064601 -2.1065506 1.17064601 0 0 Z " fill="#BBC9D1" transform="translate(1000,2254)"/>
<path d="M0 0 C0.95261719 -0.00515625 1.90523438 -0.0103125 2.88671875 -0.015625 C5.3125 0.25 5.3125 0.25 7.3125 2.25 C6.33410156 2.25257813 5.35570312 2.25515625 4.34765625 2.2578125 C-4.24932299 2.51141071 -9.99970711 3.5176061 -16.6875 9.25 C-18.01608836 10.25629555 -19.3481328 11.25809613 -20.6875 12.25 C-20.453125 9.91796875 -20.453125 9.91796875 -19.6875 7.25 C-17.796875 5.73828125 -17.796875 5.73828125 -15.4375 4.5625 C-14.66921875 4.16675781 -13.9009375 3.77101563 -13.109375 3.36328125 C-12.31015625 2.99589844 -11.5109375 2.62851563 -10.6875 2.25 C-9.88183594 1.87746094 -9.07617188 1.50492188 -8.24609375 1.12109375 C-5.36471814 0.14010633 -3.03741793 -0.01657527 0 0 Z " fill="#525B78" transform="translate(322.6875,2251.75)"/>
<path d="M0 0 C-4.84453855 4.30625648 -8.82308579 4.44170091 -15.1953125 4.43359375 C-18.29459062 3.95445744 -19.69796465 3.07623762 -22 1 C-18.70932284 0.63619983 -15.41737181 0.28560207 -12.125 -0.0625 C-11.18785156 -0.16626953 -10.25070312 -0.27003906 -9.28515625 -0.37695312 C-7.94130859 -0.51713867 -7.94130859 -0.51713867 -6.5703125 -0.66015625 C-5.32918701 -0.79369507 -5.32918701 -0.79369507 -4.06298828 -0.92993164 C-2 -1 -2 -1 0 0 Z " fill="#DCE6F4" transform="translate(974,2282)"/>
<path d="M0 0 C-3.22741499 3.56714288 -6.34686865 5.79361151 -11.19140625 6.3984375 C-12.86009766 6.38683594 -12.86009766 6.38683594 -14.5625 6.375 C-15.67753906 6.38273437 -16.79257812 6.39046875 -17.94140625 6.3984375 C-21.22845597 5.97023945 -22.59855171 5.21943143 -25 3 C-21 3 -21 3 -19 4 C-16.88446939 4.0149921 -16.88446939 4.0149921 -14.5625 3.75 C-13.78003906 3.68296875 -12.99757813 3.6159375 -12.19140625 3.546875 C-9.61341396 2.90352577 -8.74110974 1.94923073 -7 0 C-3.98519175 -1.13055309 -3.16829698 -1.05609899 0 0 Z " fill="#7E8FC1" transform="translate(485,2280)"/>
<path d="M0 0 C17.07744875 -0.738041 17.07744875 -0.738041 23 4 C22.67 4.99 22.34 5.98 22 7 C21.38125 6.525625 20.7625 6.05125 20.125 5.5625 C14.26615911 2.63307955 7.46190063 2.82994998 1 3 C0.67 2.01 0.34 1.02 0 0 Z " fill="#94A6BB" transform="translate(116,2251)"/>
<path d="M0 0 C0.33 0.99 0.66 1.98 1 3 C1.66 3 2.32 3 3 3 C3.268125 3.61875 3.53625 4.2375 3.8125 4.875 C4.95556848 7.2995233 4.95556848 7.2995233 8 9 C7.01 9.33 6.02 9.66 5 10 C3.30859375 9.0390625 3.30859375 9.0390625 1.4375 7.625 C-4.79000301 3.48480003 -11.72276449 3.8084938 -19 4 C-15.40985408 1.73953776 -12.4905135 1.82053434 -8.3125 1.9375 C-6.20891853 1.99131799 -4.10416952 2.0205428 -2 2 C-1.67 1.67 -1.34 1.34 -1 1 C-0.67 0.67 -0.34 0.34 0 0 Z " fill="#98A5B2" transform="translate(432,2250)"/>
<path d="M0 0 C0.33 0 0.66 0 1 0 C1 10.89 1 21.78 1 33 C0.01 33.495 0.01 33.495 -1 34 C-2.14086489 29.29393233 -2.56698465 24.60063208 -1.52734375 19.83203125 C-0.80698972 15.96346331 -0.63820506 12.11276459 -0.4375 8.1875 C-0.39431641 7.39923828 -0.35113281 6.61097656 -0.30664062 5.79882812 C-0.20121679 3.86605785 -0.10016906 1.93304974 0 0 Z " fill="#9BFFFF" transform="translate(1747,113)"/>
<path d="M0 0 C6.6 0 13.2 0 20 0 C19 3 19 3 17 4 C15.06640414 4.14851844 13.12657903 4.22130833 11.1875 4.25 C10.14980469 4.27578125 9.11210937 4.3015625 8.04296875 4.328125 C4.62551405 3.95961897 2.75369814 3.01564596 0 1 C0 0.67 0 0.34 0 0 Z " fill="#C5D2E5" transform="translate(360,2282)"/>
<path d="M0 0 C0.66 0 1.32 0 2 0 C1.55077798 5.07525299 -0.97013303 7.99702108 -4.0625 11.8125 C-4.53494141 12.40998047 -5.00738281 13.00746094 -5.49414062 13.62304688 C-6.65472506 15.08843126 -7.82628832 16.54510876 -9 18 C-10.0625 16.1875 -10.0625 16.1875 -11 14 C-10.67 13.01 -10.34 12.02 -10 11 C-8.68 11 -7.36 11 -6 11 C-6 9.68 -6 8.36 -6 7 C-5.34 7 -4.68 7 -4 7 C-3.34 5.68 -2.68 4.36 -2 3 C-1.34 3 -0.68 3 0 3 C0 2.01 0 1.02 0 0 Z " fill="#A2B2CF" transform="translate(499,2258)"/>
<path d="M0 0 C0.66 0.33 1.32 0.66 2 1 C3.54023996 1.06950541 5.08334988 1.08452357 6.625 1.0625 C7.44226562 1.05347656 8.25953125 1.04445313 9.1015625 1.03515625 C9.72804688 1.02355469 10.35453125 1.01195313 11 1 C11.33 1.66 11.66 2.32 12 3 C8.59940516 5.05674531 5.8813629 5.2978388 1.9375 5.3125 C0.37322266 5.33763672 0.37322266 5.33763672 -1.22265625 5.36328125 C-4 5 -4 5 -5.87109375 3.48046875 C-6.24363281 2.99191406 -6.61617187 2.50335937 -7 2 C-4.69 2 -2.38 2 0 2 C0 1.34 0 0.68 0 0 Z " fill="#D5E4EE" transform="translate(1156,2281)"/>
<path d="M0 0 C0 0.66 0 1.32 0 2 C1.97691598 3.03621803 1.97691598 3.03621803 4.0625 3.75 C4.701875 4.1625 5.34125 4.575 6 5 C6.33 6.65 6.66 8.3 7 10 C2.545 7.525 2.545 7.525 -2 5 C-2 4.34 -2 3.68 -2 3 C-6.29 2.67 -10.58 2.34 -15 2 C-15 1.67 -15 1.34 -15 1 C-9.92928099 0.28832014 -5.11791642 -0.10662326 0 0 Z " fill="#DCE9F2" transform="translate(627,2250)"/>
<path d="M0 0 C1.32 0 2.64 0 4 0 C4 0.66 4 1.32 4 2 C-1.33720852 5.46197309 -6.80365251 5.95472424 -13 5 C-15.3359375 3.4765625 -15.3359375 3.4765625 -17 2 C-14 1 -14 1 -11.25 1.5 C-7.57488426 2.06540242 -4.63490578 1.71272662 -1 1 C-0.67 0.67 -0.34 0.34 0 0 Z " fill="#AFC8DB" transform="translate(1560,2281)"/>
<path d="M0 0 C1.65 0 3.3 0 5 0 C1.65761986 4.19233248 -1.22425093 7.4074505 -6 10 C-6.33 10.66 -6.66 11.32 -7 12 C-7.66 12 -8.32 12 -9 12 C-8.25 7.25 -8.25 7.25 -6 5 C-5.67 4.34 -5.34 3.68 -5 3 C-3.66666667 2.66666667 -2.33333333 2.33333333 -1 2 C-0.67 1.34 -0.34 0.68 0 0 Z " fill="#D0E0F5" transform="translate(1388,2255)"/>
<path d="M0 0 C0.66 0.33 1.32 0.66 2 1 C4.71262116 1.2322646 7.40773126 1.41936235 10.125 1.5625 C11.25615234 1.62727539 11.25615234 1.62727539 12.41015625 1.69335938 C14.27321888 1.7994832 16.13658524 1.90025001 18 2 C18 2.66 18 3.32 18 4 C15.18792765 5.40603618 12.75990534 5.24557505 9.625 5.3125 C7.91183594 5.36857422 7.91183594 5.36857422 6.1640625 5.42578125 C2.42083791 4.92206337 1.31858198 3.89537207 -1 1 C-0.67 0.67 -0.34 0.34 0 0 Z " fill="#AFC3EB" transform="translate(1640,2281)"/>
<path d="M0 0 C-2.5957607 2.13768528 -5.17267665 4.11152034 -8 5.9375 C-11.04496442 8.03091304 -13.46813113 10.31919767 -16 13 C-15.67 10.03 -15.34 7.06 -15 4 C-13.63875 3.8453125 -13.63875 3.8453125 -12.25 3.6875 C-9.01939457 3.24507594 -9.01939457 3.24507594 -6.9375 1.4375 C-4.49135405 -0.37738248 -2.97485361 -0.24790447 0 0 Z " fill="#99B8CB" transform="translate(1299,2254)"/>
<path d="M0 0 C-0.66386719 0.43570313 -1.32773437 0.87140625 -2.01171875 1.3203125 C-7.20285291 4.8214862 -11.16054512 8.08069843 -15 13 C-15.66 13 -16.32 13 -17 13 C-16.625 11.0625 -16.625 11.0625 -16 9 C-15.34 8.67 -14.68 8.34 -14 8 C-13.87625 7.38125 -13.7525 6.7625 -13.625 6.125 C-12.80178529 3.32606997 -11.39815356 2.54719585 -9 1 C-8.34 1.33 -7.68 1.66 -7 2 C-7 1.34 -7 0.68 -7 0 C-3.98968256 -0.93423645 -3.13349732 -1.04449911 0 0 Z " fill="#BDC8D7" transform="translate(707,2255)"/>
<path d="M0 0 C-1.01320313 0.90492188 -1.01320313 0.90492188 -2.046875 1.828125 C-3.38492188 3.02695313 -3.38492188 3.02695313 -4.75 4.25 C-5.63171875 5.03890625 -6.5134375 5.8278125 -7.421875 6.640625 C-9.67866165 8.70592672 -11.85739926 10.81735064 -14 13 C-13.33291118 9.83132812 -12.24827937 7.18104119 -10.75 4.3125 C-10.35296875 3.52488281 -9.9559375 2.73726562 -9.546875 1.92578125 C-8 0 -8 0 -5.515625 -0.83203125 C-3 -1 -3 -1 0 0 Z " fill="#6B7784" transform="translate(803,2257)"/>
<path d="M0 0 C0.66 0.99 1.32 1.98 2 3 C0.71416016 3.03867188 0.71416016 3.03867188 -0.59765625 3.078125 C-7.59618823 3.42529006 -12.21968319 4.01800398 -18 8 C-18.66 8 -19.32 8 -20 8 C-19.67 7.01 -19.34 6.02 -19 5 C-18.01 5 -17.02 5 -16 5 C-16 4.34 -16 3.68 -16 3 C-10.61420872 0.94826999 -5.85642767 -0.71711359 0 0 Z " fill="#7E829D" transform="translate(1506,2251)"/>
<path d="M0 0 C0.70125 0.0721875 1.4025 0.144375 2.125 0.21875 C7.78307538 0.77225737 13.31588941 1.10724737 19 1 C19.33 1.66 19.66 2.32 20 3 C17.20268195 4.39865903 14.80715441 4.24537267 11.6875 4.3125 C10.55699219 4.34988281 9.42648437 4.38726563 8.26171875 4.42578125 C4.39367111 3.92085048 2.7879557 2.65195786 0 0 Z " fill="#A2B8C9" transform="translate(1442,2282)"/>
<path d="M0 0 C8.11835767 -0.75324968 13.35647816 0.01506597 20.234375 4.4921875 C20.81703125 4.98976563 21.3996875 5.48734375 22 6 C22 6.66 22 7.32 22 8 C19.20834962 6.90025894 16.5095396 5.75957823 13.8125 4.4375 C9.38047648 2.49603837 4.78200021 2.27903019 0 2 C0 1.34 0 0.68 0 0 Z " fill="#97B6D1" transform="translate(1595,2251)"/>
<path d="M0 0 C0.99 0.33 1.98 0.66 3 1 C1.75803878 2.15454162 0.50607155 3.29832562 -0.75 4.4375 C-1.44609375 5.07558594 -2.1421875 5.71367187 -2.859375 6.37109375 C-5.02840237 8.02161275 -6.2941525 8.78551209 -9 9 C-9.99 8.34 -10.98 7.68 -12 7 C-11.67 5.68 -11.34 4.36 -11 3 C-8.69 3.66 -6.38 4.32 -4 5 C-4 4.34 -4 3.68 -4 3 C-3.01 2.67 -2.02 2.34 -1 2 C-0.67 1.34 -0.34 0.68 0 0 Z " fill="#F0FCFD" transform="translate(92,2275)"/>
<path d="M0 0 C0.99 0.33 1.98 0.66 3 1 C-1.5710874 6.08533473 -5.72764366 9.24896652 -12 12 C-12 11.34 -12 10.68 -12 10 C-12.99 9.67 -13.98 9.34 -15 9 C-13.35 9 -11.7 9 -10 9 C-10 8.34 -10 7.68 -10 7 C-7 5 -7 5 -3 5 C-3 4.01 -3 3.02 -3 2 C-2.01 2 -1.02 2 0 2 C0 1.34 0 0.68 0 0 Z " fill="#9ABFCF" transform="translate(684,2274)"/>
<path d="M0 0 C1.32 0.33 2.64 0.66 4 1 C2.20942753 3.12593053 0.41759447 5.25077556 -1.375 7.375 C-1.88289063 7.97828125 -2.39078125 8.5815625 -2.9140625 9.203125 C-3.64882812 10.07324219 -3.64882812 10.07324219 -4.3984375 10.9609375 C-5.07398682 11.76217041 -5.07398682 11.76217041 -5.76318359 12.57958984 C-6.79399612 13.76341678 -7.89004039 14.89004039 -9 16 C-9 14.68 -9 13.36 -9 12 C-8.34 12 -7.68 12 -7 12 C-6.896875 11.4225 -6.79375 10.845 -6.6875 10.25 C-5.90207202 7.67950842 -4.69495803 6.06342716 -3 4 C-2.34 4.33 -1.68 4.66 -1 5 C-1 4.34 -1 3.68 -1 3 C-1.66 2.67 -2.32 2.34 -3 2 C-2.01 2 -1.02 2 0 2 C0 1.34 0 0.68 0 0 Z " fill="#A6C5D5" transform="translate(1185,2261)"/>
<path d="M0 0 C1.32 0 2.64 0 4 0 C4 0.66 4 1.32 4 2 C2.171875 3.33203125 2.171875 3.33203125 -0.25 4.8125 C-3.90663154 7.15619927 -6.53469824 9.35564087 -9 13 C-9.66 12.67 -10.32 12.34 -11 12 C-10.67 10.68 -10.34 9.36 -10 8 C-9.34 8 -8.68 8 -8 8 C-8 7.34 -8 6.68 -8 6 C-7.01 6 -6.02 6 -5 6 C-5 5.34 -5 4.68 -5 4 C-3.35 3.67 -1.7 3.34 0 3 C0 2.01 0 1.02 0 0 Z " fill="#B8C5D7" transform="translate(406,2254)"/>
<path d="M0 0 C2.64 0 5.28 0 8 0 C8 0.66 8 1.32 8 2 C10.64 1.67 13.28 1.34 16 1 C16 1.66 16 2.32 16 3 C13.55028376 4.22485812 11.85765539 4.16722808 9.125 4.1875 C7.82949219 4.20876953 7.82949219 4.20876953 6.5078125 4.23046875 C3.8758712 3.98859252 2.26019456 3.32983541 0 2 C0 1.34 0 0.68 0 0 Z " fill="#B1C5CC" transform="translate(559,2282)"/>
<path d="M0 0 C0.33 0.99 0.66 1.98 1 3 C-1.86672484 7.80762025 -6.19882995 11.27206247 -11 14 C-11.66 14 -12.32 14 -13 14 C-11.52171103 10.10269271 -9.51457112 9.05730992 -6 7 C-4.98199424 5.68036291 -3.97751635 4.34990354 -3 3 C-2.34 3 -1.68 3 -1 3 C-0.67 2.01 -0.34 1.02 0 0 Z " fill="#628CA0" transform="translate(787,2270)"/>
<path d="M0 0 C-4.90502055 4.11388821 -10.25566984 8.12783492 -16 11 C-16 9.68 -16 8.36 -16 7 C-14.9275 6.401875 -13.855 5.80375 -12.75 5.1875 C-10.60124236 3.9750484 -8.7876128 2.82509289 -6.875 1.25 C-4.47158088 -0.35227941 -2.82904617 -0.23575385 0 0 Z " fill="#55689A" transform="translate(1103,2254)"/>
<path d="M0 0 C1.65 0 3.3 0 5 0 C5.33 0.66 5.66 1.32 6 2 C4.71186658 2.83878455 3.41936744 3.67086783 2.125 4.5 C1.40570313 4.9640625 0.68640625 5.428125 -0.0546875 5.90625 C-2 7 -2 7 -4 7 C-4.33 7.66 -4.66 8.32 -5 9 C-5 5 -5 5 -4 3 C-3.01 3 -2.02 3 -1 3 C-0.67 2.01 -0.34 1.02 0 0 Z " fill="#B4C7E2" transform="translate(110,2253)"/>
<path d="M0 0 C1.32 0.33 2.64 0.66 4 1 C-1.03193995 5.10500365 -3.10184604 6.12645249 -9.625 6.0625 C-10.81351563 6.05347656 -12.00203125 6.04445313 -13.2265625 6.03515625 C-14.14179688 6.02355469 -15.05703125 6.01195313 -16 6 C-15.67 5.34 -15.34 4.68 -15 4 C-13.824375 4.04125 -12.64875 4.0825 -11.4375 4.125 C-7.27590326 4.13983635 -3.93512333 3.31170778 0 2 C0 1.34 0 0.68 0 0 Z " fill="#8AA8C7" transform="translate(184,2280)"/>
<path d="M0 0 C0.66 0 1.32 0 2 0 C1.38306096 3.3151182 0.20539241 5.43788251 -1.8125 8.125 C-2.31394531 8.80820313 -2.81539062 9.49140625 -3.33203125 10.1953125 C-5.09519552 12.10299843 -6.6226901 12.99957024 -9 14 C-9 13.34 -9 12.68 -9 12 C-8.34 12 -7.68 12 -7 12 C-7 11.01 -7 10.02 -7 9 C-6.01 9 -5.02 9 -4 9 C-3.67 7.02 -3.34 5.04 -3 3 C-2.01 3 -1.02 3 0 3 C0 2.01 0 1.02 0 0 Z " fill="#798DC2" transform="translate(1577,2264)"/>
<path d="M0 0 C10.55808656 -0.55353075 10.55808656 -0.55353075 15 3 C14.67 3.66 14.34 4.32 14 5 C12.824375 4.67 11.64875 4.34 10.4375 4 C6.4988324 3.0030467 3.04860871 2.83130797 -1 3 C-0.67 2.01 -0.34 1.02 0 0 Z " fill="#85959E" transform="translate(1400,2251)"/>
<path d="M0 0 C0.66 0 1.32 0 2 0 C2 0.99 2 1.98 2 3 C1.01 2.67 0.02 2.34 -1 2 C-0.67 1.34 -0.34 0.68 0 0 Z M-3 3 C-1.68 3.66 -0.36 4.32 1 5 C-0.2065625 5.433125 -0.2065625 5.433125 -1.4375 5.875 C-4.1326468 6.73262568 -4.1326468 6.73262568 -5 9 C-5.66 8.34 -6.32 7.68 -7 7 C-5.68 5.68 -4.36 4.36 -3 3 Z M-10 10 C-9.34 10.66 -8.68 11.32 -8 12 C-8.66 12.66 -9.32 13.32 -10 14 C-10.33 13.01 -10.66 12.02 -11 11 C-10.67 10.67 -10.34 10.34 -10 10 Z " fill="#F3FDF2" transform="translate(1247,85)"/>
<path d="M0 0 C3.9252025 3.70090521 6.94580156 7.54959656 10 12 C8.68 11.67 7.36 11.34 6 11 C6 10.34 6 9.68 6 9 C4.68 8.67 3.36 8.34 2 8 C1.67 6.35 1.34 4.7 1 3 C-0.32 2.67 -1.64 2.34 -3 2 C-2.01 1.34 -1.02 0.68 0 0 Z " fill="#CDF8FC" transform="translate(1674,94)"/>
<path d="M0 0 C2.86207152 1.28299758 5.0245088 2.530636 7 5 C7 5.99 7 6.98 7 8 C8.32 8.66 9.64 9.32 11 10 C11 10.66 11 11.32 11 12 C7.612801 10.5611898 5.6405896 8.77880501 3.25 6 C2.63640625 5.29875 2.0228125 4.5975 1.390625 3.875 C0 2 0 2 0 0 Z " fill="#DCE9F1" transform="translate(152,2270)"/>
<path d="M0 0 C1.98 0.99 1.98 0.99 4 2 C4 2.66 4 3.32 4 4 C4.66 4 5.32 4 6 4 C7.38938077 5.96147874 8.7260411 7.96166576 10 10 C9.01 10.33 8.02 10.66 7 11 C6.34 10.67 5.68 10.34 5 10 C5 8.68 5 7.36 5 6 C4.01 5.67 3.02 5.34 2 5 C2 4.34 2 3.68 2 3 C1.34 3 0.68 3 0 3 C0 2.01 0 1.02 0 0 Z " fill="#C5F6F6" transform="translate(882,90)"/>
<path d="M0 0 C0.99 0 1.98 0 3 0 C3 3.96 3 7.92 3 12 C2.34 12 1.68 12 1 12 C-0.3271261 8.0186217 -0.06915913 4.14954773 0 0 Z " fill="#FBFBF3" transform="translate(80,187)"/>
<path d="M0 0 C1.32176485 0.90325616 2.63215066 1.82317903 3.9375 2.75 C4.66839844 3.26046875 5.39929687 3.7709375 6.15234375 4.296875 C8.20805399 6.19177915 8.62669176 7.27425729 9 10 C8.01 10 7.02 10 6 10 C1 4.65116279 1 4.65116279 1 2 C0.34 1.67 -0.32 1.34 -1 1 C-0.67 0.67 -0.34 0.34 0 0 Z " fill="#ECFEFF" transform="translate(1665,86)"/>
<path d="M0 0 C4.13606764 0.60824524 7.46058648 1.74764594 11 4 C11.875 6.6875 11.875 6.6875 12 9 C11.01 9.495 11.01 9.495 10 10 C9.278125 9.071875 8.55625 8.14375 7.8125 7.1875 C5.51297094 4.4017848 3.1919005 2.73274599 0 1 C0 0.67 0 0.34 0 0 Z " fill="#CDD3DC" transform="translate(1416,2256)"/>
<path d="M0 0 C1.79158489 -0.02696365 3.58328473 -0.04637917 5.375 -0.0625 C6.37273438 -0.07410156 7.37046875 -0.08570312 8.3984375 -0.09765625 C11 0 11 0 13 1 C13 1.66 13 2.32 13 3 C14.32 3.33 15.64 3.66 17 4 C16.34 4.66 15.68 5.32 15 6 C14.41992188 5.72285156 13.83984375 5.44570312 13.2421875 5.16015625 C8.82158159 3.11033734 4.90485647 1.5030622 0 1 C0 0.67 0 0.34 0 0 Z " fill="#B1C2DD" transform="translate(909,2251)"/>
<path d="M0 0 C1.27310312 0.93441535 2.543388 1.87267111 3.8125 2.8125 C4.52019531 3.33457031 5.22789063 3.85664062 5.95703125 4.39453125 C7.78531393 5.83128877 9.39896688 7.31815763 11 9 C8.69 8.67 6.38 8.34 4 8 C4 7.34 4 6.68 4 6 C3.01 6 2.02 6 1 6 C0.67 4.02 0.34 2.04 0 0 Z " fill="#D6FFFD" transform="translate(1581,102)"/>
<path d="M0 0 C3.85998276 0.52161929 5.30946515 1.30946515 8 4 C10.60611077 4.72197162 10.60611077 4.72197162 13 5 C13 5.99 13 6.98 13 8 C7.73691968 6.58795406 4.2437012 4.31008693 0 1 C0 0.67 0 0.34 0 0 Z " fill="#B3D0DA" transform="translate(1731,2277)"/>
<path d="M0 0 C0.99 -0.33 1.98 -0.66 3 -1 C3.33 -0.34 3.66 0.32 4 1 C-2.625 4.125 -2.625 4.125 -6 3 C-6 2.01 -6 1.02 -6 0 C-3 -1 -3 -1 0 0 Z " fill="#F0F5EE" transform="translate(368,84)"/>
<path d="M0 0 C0.66 0.33 1.32 0.66 2 1 C1.75 3.375 1.75 3.375 1 6 C-1.0625 7.3125 -1.0625 7.3125 -3 8 C-3.75 6.25 -3.75 6.25 -4 4 C-2.0625 1.75 -2.0625 1.75 0 0 Z " fill="#D8EAE9" transform="translate(689,2265)"/>
<path d="M0 0 C2.97 0.495 2.97 0.495 6 1 C6 1.66 6 2.32 6 3 C6.66 3 7.32 3 8 3 C8 3.66 8 4.32 8 5 C8.66 5 9.32 5 10 5 C10.33 6.32 10.66 7.64 11 9 C9.53699018 8.06981474 8.07974421 7.13055973 6.625 6.1875 C5.81289063 5.66542969 5.00078125 5.14335937 4.1640625 4.60546875 C2 3 2 3 0 0 Z " fill="#97B7E4" transform="translate(823,2254)"/>
<path d="M0 0 C0.99 0 1.98 0 3 0 C2 3 2 3 0 4 C-2.04055005 4.07065617 -4.08334257 4.08421976 -6.125 4.0625 C-7.22070312 4.05347656 -8.31640625 4.04445313 -9.4453125 4.03515625 C-10.70988281 4.01775391 -10.70988281 4.01775391 -12 4 C-9.1004339 2.34123921 -7.08364791 1.7638784 -3.75 1.875 C-1.89375 1.936875 -1.89375 1.936875 0 2 C0 1.34 0 0.68 0 0 Z " fill="#9D9FB1" transform="translate(377,2282)"/>
<path d="M0 0 C0.66 0.33 1.32 0.66 2 1 C-1.06093224 4.93548431 -3.49115974 7.68116787 -8 10 C-8.33 9.01 -8.66 8.02 -9 7 C-7.824375 6.87625 -7.824375 6.87625 -6.625 6.75 C-3.87359896 6.28389075 -3.87359896 6.28389075 -2.8125 4.0625 C-2.544375 3.381875 -2.27625 2.70125 -2 2 C-1.34 1.34 -0.68 0.68 0 0 Z " fill="#657B8E" transform="translate(293,2273)"/>
<path d="M0 0 C0.99 0 1.98 0 3 0 C1.63055898 2.94956528 0.12169591 5.52468811 -2 8 C-2.66 8 -3.32 8 -4 8 C-4 6.35 -4 4.7 -4 3 C-3.01 2.67 -2.02 2.34 -1 2 C-0.67 1.34 -0.34 0.68 0 0 Z " fill="#9DA2B8" transform="translate(202,2261)"/>
<path d="M0 0 C2.1875 -0.375 2.1875 -0.375 5 0 C6.99022836 1.83961648 8.38989899 3.79186148 10 6 C9.34 6.66 8.68 7.32 8 8 C6.66372225 6.85760183 5.33104612 5.71098945 4 4.5625 C3.2575 3.92441406 2.515 3.28632813 1.75 2.62890625 C1.1725 2.09136719 0.595 1.55382813 0 1 C0 0.67 0 0.34 0 0 Z " fill="#E3E3ED" transform="translate(1028,2260)"/>
<path d="M0 0 C1.65 0 3.3 0 5 0 C4.09515208 1.15518918 3.1755794 2.29885406 2.25 3.4375 C1.73953125 4.07558594 1.2290625 4.71367187 0.703125 5.37109375 C-1.19667629 7.18810554 -2.43586908 7.60423197 -5 8 C-4.34 7.01 -3.68 6.02 -3 5 C-2.34 5 -1.68 5 -1 5 C-0.67 3.35 -0.34 1.7 0 0 Z " fill="#768598" transform="translate(1388,2255)"/>
<path d="M0 0 C1.98 0 3.96 0 6 0 C6 0.66 6 1.32 6 2 C-0.75 5.875 -0.75 5.875 -3 7 C-3 6.01 -3 5.02 -3 4 C-2.34 4 -1.68 4 -1 4 C-0.67 2.68 -0.34 1.36 0 0 Z " fill="#B1B8D5" transform="translate(1685,2253)"/>
<path d="M0 0 C2.24993359 -0.02707139 4.49996095 -0.04642829 6.75 -0.0625 C8.00296875 -0.07410156 9.2559375 -0.08570312 10.546875 -0.09765625 C13.28536501 -0.02021027 15.41880293 0.17219185 18 1 C17.67 1.99 17.34 2.98 17 4 C16.34 4 15.68 4 15 4 C15 3.34 15 2.68 15 2 C10.05 1.67 5.1 1.34 0 1 C0 0.67 0 0.34 0 0 Z " fill="#C7DCE6" transform="translate(1299,2251)"/>
<path d="M0 0 C1.32 0.33 2.64 0.66 4 1 C0.61416198 4.13107836 -1.71109462 4.33550778 -6.25 4.1875 C-7.86648438 4.14689453 -7.86648438 4.14689453 -9.515625 4.10546875 C-10.74539063 4.05326172 -10.74539063 4.05326172 -12 4 C-12 3.67 -12 3.34 -12 3 C-6.06 2.505 -6.06 2.505 0 2 C0 1.34 0 0.68 0 0 Z " fill="#828EAD" transform="translate(1164,2282)"/>
<path d="M0 0 C1.32 0 2.64 0 4 0 C4 0.66 4 1.32 4 2 C4.99 2.33 5.98 2.66 7 3 C7.66 3.66 8.32 4.32 9 5 C8.01 5.33 7.02 5.66 6 6 C2.8125 4.1875 2.8125 4.1875 0 2 C0 1.34 0 0.68 0 0 Z " fill="#D3DFF7" transform="translate(453,2277)"/>
<path d="M0 0 C4.05606165 0.46800711 7.46588679 0.87953208 11 3 C10.67 3.66 10.34 4.32 10 5 C5.59885603 4.49701212 3.28804981 2.91227269 0 0 Z " fill="#D1DCE9" transform="translate(1512,2254)"/>
<path d="M0 0 C2.08304538 -0.05418326 4.16649768 -0.09287551 6.25 -0.125 C7.99023438 -0.15980469 7.99023438 -0.15980469 9.765625 -0.1953125 C12.82786046 -0.0103949 14.44202751 0.39176977 17 2 C17 2.33 17 2.66 17 3 C15.02 3 13.04 3 11 3 C11 2.34 11 1.68 11 1 C7.37 1 3.74 1 0 1 C0 0.67 0 0.34 0 0 Z " fill="#BFD5E8" transform="translate(709,2251)"/>
<path d="M0 0 C3.72940389 1.24313463 4.84656811 2.76985216 7 6 C6.67 6.99 6.34 7.98 6 9 C4 7.6875 4 7.6875 2 6 C2 5.01 2 4.02 2 3 C1.34 3 0.68 3 0 3 C0 2.01 0 1.02 0 0 Z " fill="#DEFEFC" transform="translate(398,99)"/>
<path d="M0 0 C5.75 1.875 5.75 1.875 8 3 C8 3.99 8 4.98 8 6 C2.33846154 4.52307692 2.33846154 4.52307692 0.625 1.875 C0.41875 1.25625 0.2125 0.6375 0 0 Z " fill="#EFFFF7" transform="translate(575,83)"/>
<path d="M0 0 C2.475 0.495 2.475 0.495 5 1 C5 1.66 5 2.32 5 3 C5.99 3.33 6.98 3.66 8 4 C8 4.99 8 5.98 8 7 C6.66144944 6.21718695 5.32926356 5.42348123 4 4.625 C3.2575 4.18414063 2.515 3.74328125 1.75 3.2890625 C1.1725 2.86367187 0.595 2.43828125 0 2 C0 1.34 0 0.68 0 0 Z " fill="#C6D0DE" transform="translate(727,2254)"/>
<path d="M0 0 C5.75 0.875 5.75 0.875 8 2 C8 2.99 8 3.98 8 5 C8.66 5 9.32 5 10 5 C10 5.66 10 6.32 10 7 C6.42032008 5.34784004 3.22017048 3.26875648 0 1 C0 0.67 0 0.34 0 0 Z " fill="#A3B1D0" transform="translate(233,2254)"/>
<path d="M0 0 C-1.45804169 0.81302325 -2.91644315 1.62540131 -4.375 2.4375 C-5.18710937 2.88996094 -5.99921875 3.34242188 -6.8359375 3.80859375 C-8.20996622 4.5650536 -9.59709261 5.29854631 -11 6 C-11 4.68 -11 3.36 -11 2 C-4.03571429 -1.34821429 -4.03571429 -1.34821429 0 0 Z " fill="#5867A5" transform="translate(512,2255)"/>
<path d="M0 0 C2.97 0.495 2.97 0.495 6 1 C3.11912454 3.40072955 0.43595166 5.47291037 -3 7 C-3.33 6.34 -3.66 5.68 -4 5 C-3.01 5 -2.02 5 -1 5 C-0.67 3.35 -0.34 1.7 0 0 Z " fill="#8A9AA8" transform="translate(1193,2253)"/>
<path d="M0 0 C-0.33 0.99 -0.66 1.98 -1 3 C-3.31 3.33 -5.62 3.66 -8 4 C-8 3.34 -8 2.68 -8 2 C-7.34 2 -6.68 2 -6 2 C-6 1.34 -6 0.68 -6 0 C-3 -1 -3 -1 0 0 Z " fill="#C1D9DC" transform="translate(1400,2251)"/>
<path d="M0 0 C1.98 0 3.96 0 6 0 C6 0.66 6 1.32 6 2 C3.47524538 3.26237731 1.68799534 3.09856404 -1.125 3.0625 C-2.03507812 3.05347656 -2.94515625 3.04445313 -3.8828125 3.03515625 C-4.58148437 3.02355469 -5.28015625 3.01195313 -6 3 C-6 2.67 -6 2.34 -6 2 C-4.02 2 -2.04 2 0 2 C0 1.34 0 0.68 0 0 Z " fill="#99A2BD" transform="translate(1652,2283)"/>
<path d="M0 0 C0 0.66 0 1.32 0 2 C-5.75 5 -5.75 5 -8 5 C-8.33 4.01 -8.66 3.02 -9 2 C-5.62902617 0.50178941 -3.79557881 0 0 0 Z " fill="#989CC1" transform="translate(1564,2281)"/>
<path d="M0 0 C-4.56327794 3.53286034 -8.49633208 3.32374517 -14 3 C-14 2.67 -14 2.34 -14 2 C-10.97265625 1.26757812 -10.97265625 1.26757812 -7.9453125 0.53515625 C-2.87011173 -0.86103352 -2.87011173 -0.86103352 0 0 Z " fill="#929BB8" transform="translate(874,2283)"/>
<path d="M0 0 C1.95901454 0.11382653 3.9172338 0.24141125 5.875 0.375 C6.96554688 0.44460937 8.05609375 0.51421875 9.1796875 0.5859375 C12 1 12 1 14 3 C12.22992286 3.08114106 10.45877902 3.13925505 8.6875 3.1875 C7.70136719 3.22230469 6.71523437 3.25710937 5.69921875 3.29296875 C3 3 3 3 1.14453125 1.48828125 C0.76683594 0.99714844 0.38914063 0.50601563 0 0 Z " fill="#C1DCE5" transform="translate(163,2282)"/>
<path d="M0 0 C0.99 0.33 1.98 0.66 3 1 C-0.96 4.465 -0.96 4.465 -5 8 C-5.33 7.01 -5.66 6.02 -6 5 C-5.34 5 -4.68 5 -4 5 C-4 4.34 -4 3.68 -4 3 C-3.01 2.67 -2.02 2.34 -1 2 C-0.67 1.34 -0.34 0.68 0 0 Z " fill="#C4D6E2" transform="translate(92,2275)"/>
<path d="M0 0 C0.99 0 1.98 0 3 0 C2.45773019 3.79588866 0.79872437 5.47211993 -2 8 C-2.33 6.68 -2.66 5.36 -3 4 C-2.01 3.67 -1.02 3.34 0 3 C0 2.01 0 1.02 0 0 Z " fill="#B9C7E0" transform="translate(1670,2269)"/>
<path d="M0 0 C0.33 0.99 0.66 1.98 1 3 C-0.21484375 4.82421875 -0.21484375 4.82421875 -1.9375 6.6875 C-2.50339844 7.31011719 -3.06929687 7.93273438 -3.65234375 8.57421875 C-4.09707031 9.04472656 -4.54179688 9.51523438 -5 10 C-5.33 9.01 -5.66 8.02 -6 7 C-5.01 6.67 -4.02 6.34 -3 6 C-3 4.68 -3 3.36 -3 2 C-2.01 1.34 -1.02 0.68 0 0 Z " fill="#6E80A4" transform="translate(892,2261)"/>
<path d="M0 0 C2.64 0.33 5.28 0.66 8 1 C8.33 2.65 8.66 4.3 9 6 C6.03 4.35 3.06 2.7 0 1 C0 0.67 0 0.34 0 0 Z " fill="#8898A4" transform="translate(625,2254)"/>
<path d="M0 0 C2.88437779 1.29299694 4.87219421 2.65941363 7 5 C6.67 5.99 6.34 6.98 6 8 C5.67 7.34 5.34 6.68 5 6 C4.34 5.71125 3.68 5.4225 3 5.125 C1 4 1 4 0.25 1.875 C0.1675 1.25625 0.085 0.6375 0 0 Z " fill="#EEFFFE" transform="translate(1477,97)"/>
<path d="M0 0 C0.66 0 1.32 0 2 0 C2.33 0.99 2.66 1.98 3 3 C0.47524538 4.26237731 -1.31200466 4.09856404 -4.125 4.0625 C-5.03507812 4.05347656 -5.94515625 4.04445313 -6.8828125 4.03515625 C-7.58148437 4.02355469 -8.28015625 4.01195313 -9 4 C-9.33 3.34 -9.66 2.68 -10 2 C-6.7 2 -3.4 2 0 2 C0 1.34 0 0.68 0 0 Z " fill="#9495BA" transform="translate(1064,2282)"/>
<path d="M0 0 C0 3.15987325 -0.38214873 4.36034793 -2 7 C-2.99 7.66 -3.98 8.32 -5 9 C-5.33 7.68 -5.66 6.36 -6 5 C-4.68 4.67 -3.36 4.34 -2 4 C-2 3.01 -2 2.02 -2 1 C-1.34 0.67 -0.68 0.34 0 0 Z " fill="#C9E7F0" transform="translate(790,2264)"/>
<path d="M0 0 C0.99 0.33 1.98 0.66 3 1 C2.0479279 2.00596297 1.08812654 3.00461563 0.125 4 C-0.40867187 4.556875 -0.94234375 5.11375 -1.4921875 5.6875 C-3 7 -3 7 -5 7 C-5 6.01 -5 5.02 -5 4 C-2.6875 1.75 -2.6875 1.75 0 0 Z " fill="#405568" transform="translate(898,2256)"/>
<path d="M0 0 C-5.41538462 4.06153846 -5.41538462 4.06153846 -8.375 3.75 C-8.91125 3.5025 -9.4475 3.255 -10 3 C-9.67 2.34 -9.34 1.68 -9 1 C-8.34 1.33 -7.68 1.66 -7 2 C-7 1.34 -7 0.68 -7 0 C-3.98968256 -0.93423645 -3.13349732 -1.04449911 0 0 Z " fill="#87A6C5" transform="translate(707,2255)"/>
<path d="M0 0 C1.32 0.33 2.64 0.66 4 1 C2.02 3.31 0.04 5.62 -2 8 C-2.33 6.68 -2.66 5.36 -3 4 C-2.01 4 -1.02 4 0 4 C0 2.68 0 1.36 0 0 Z " fill="#9CB3D0" transform="translate(599,2256)"/>
<path d="M0 0 C4.66666667 0.66666667 9.33333333 1.33333333 14 2 C14 2.33 14 2.66 14 3 C12.41753293 3.08153933 10.83383727 3.13943557 9.25 3.1875 C8.36828125 3.22230469 7.4865625 3.25710937 6.578125 3.29296875 C3.55328417 2.94923684 2.24416398 1.99772541 0 0 Z " fill="#8CC0C3" transform="translate(952,2283)"/>
<path d="M0 0 C3.36016893 1.12005631 4.69064913 2.37211797 7 5 C7 5.66 7 6.32 7 7 C4.20171644 6.61402985 3.1794116 6.19863427 1.25 4.0625 C0 2 0 2 0 0 Z " fill="#E2F8FE" transform="translate(1236,2271)"/>
<path d="M0 0 C0.66 0.33 1.32 0.66 2 1 C-0.97 4.96 -0.97 4.96 -4 9 C-4.33 8.01 -4.66 7.02 -5 6 C-2.66666667 1.33333333 -2.66666667 1.33333333 0 0 Z " fill="#545F92" transform="translate(300,2264)"/>
<path d="M0 0 C-1.28913487 0.67154933 -2.58140204 1.33708859 -3.875 2 C-4.59429687 2.37125 -5.31359375 2.7425 -6.0546875 3.125 C-8 4 -8 4 -10 4 C-10 3.34 -10 2.68 -10 2 C-4.10714286 -1.34821429 -4.10714286 -1.34821429 0 0 Z " fill="#DDEAF4" transform="translate(512,2253)"/>
<path d="M0 0 C3.33523252 1.38009621 5.18607951 2.84950652 7 6 C6.67 6.99 6.34 7.98 6 9 C3.03134491 6.45543849 1.6380249 3.51005335 0 0 Z " fill="#EEFDFB" transform="translate(1572,93)"/>
<path d="M0 0 C1.65 1.65 3.3 3.3 5 5 C4.67 5.99 4.34 6.98 4 8 C2 6.25 2 6.25 0 4 C0 2.68 0 1.36 0 0 Z " fill="#D3EBF2" transform="translate(1378,94)"/>
<path d="M0 0 C1.8871875 0.0309375 1.8871875 0.0309375 3.8125 0.0625 C3.8125 0.3925 3.8125 0.7225 3.8125 1.0625 C1.8325 1.0625 -0.1475 1.0625 -2.1875 1.0625 C-2.1875 1.7225 -2.1875 2.3825 -2.1875 3.0625 C-4.1675 3.0625 -6.1475 3.0625 -8.1875 3.0625 C-6.45706736 -0.39836529 -3.47359009 -0.0569441 0 0 Z " fill="#CEDEE9" transform="translate(281.1875,2281.9375)"/>
<path d="M0 0 C0 0.66 0 1.32 0 2 C-3.96 3.98 -3.96 3.98 -8 6 C-8.33 5.34 -8.66 4.68 -9 4 C-3.375 0 -3.375 0 0 0 Z " fill="#E5EEF1" transform="translate(583,2278)"/>
<path d="M0 0 C0.66 0 1.32 0 2 0 C1.75 1.875 1.75 1.875 1 4 C-1 5.125 -1 5.125 -3 6 C-3.33 6.66 -3.66 7.32 -4 8 C-3.40312566 4.65750371 -2.26396123 2.53563658 0 0 Z " fill="#6A7485" transform="translate(1583,2258)"/>
<path d="M0 0 C0.721875 0.103125 1.44375 0.20625 2.1875 0.3125 C-1.10054981 3.22477269 -3.41135603 4.80951212 -7.8125 5.3125 C-3.50480769 0.38942308 -3.50480769 0.38942308 0 0 Z " fill="#4B7896" transform="translate(1296.8125,2253.6875)"/>
<path d="M0 0 C1.32 0.33 2.64 0.66 4 1 C4 1.66 4 2.32 4 3 C4.99 3.33 5.98 3.66 7 4 C7.33 4.99 7.66 5.98 8 7 C5.05043472 5.63055898 2.47531189 4.12169591 0 2 C0 1.34 0 0.68 0 0 Z " fill="#8CA4CE" transform="translate(1123,2257)"/>
<path d="M0 0 C2.875 0.25 2.875 0.25 6 1 C7.375 3.0625 7.375 3.0625 8 5 C4.75791433 4.64950425 3.38472296 4.43778819 1.1875 1.9375 C0.795625 1.298125 0.40375 0.65875 0 0 Z " fill="#B3BABC" transform="translate(1021,2254)"/>
<path d="M0 0 C-4.95 2.475 -4.95 2.475 -10 5 C-8 1 -8 1 -5.5625 -0.3125 C-3 -1 -3 -1 0 0 Z " fill="#2D4C5E" transform="translate(611,2255)"/>
<path d="M0 0 C4.95 0.99 4.95 0.99 10 2 C10 2.33 10 2.66 10 3 C7.03 3 4.06 3 1 3 C0.67 2.01 0.34 1.02 0 0 Z " fill="#A0A8BE" transform="translate(1348,2283)"/>
<path d="M0 0 C-1.98 1.32 -3.96 2.64 -6 4 C-6.66 2.68 -7.32 1.36 -8 0 C-2.25 -1.125 -2.25 -1.125 0 0 Z " fill="#9CA4CA" transform="translate(974,2282)"/>
<path d="M0 0 C0.66 0.66 1.32 1.32 2 2 C0.71034824 3.37562854 -0.62689293 4.70766393 -2 6 C-2.66 6 -3.32 6 -4 6 C-4 4.68 -4 3.36 -4 2 C-2.68 1.34 -1.36 0.68 0 0 Z " fill="#819298" transform="translate(979,2275)"/>
<path d="M0 0 C0.33 1.32 0.66 2.64 1 4 C-2.75 7 -2.75 7 -5 7 C-5 6.34 -5 5.68 -5 5 C-4.34 5 -3.68 5 -3 5 C-3 4.34 -3 3.68 -3 3 C-2.34 3 -1.68 3 -1 3 C-0.67 2.01 -0.34 1.02 0 0 Z " fill="#D7FCFF" transform="translate(385,2276)"/>
<path d="M0 0 C0.99 0 1.98 0 3 0 C1.25 4.875 1.25 4.875 -1 6 C-1.625 4.125 -1.625 4.125 -2 2 C-1.34 1.34 -0.68 0.68 0 0 Z " fill="#C8D1D0" transform="translate(1475,2267)"/>
<path d="M0 0 C0.8125 1.6875 0.8125 1.6875 1 4 C-1.4375 6.75 -1.4375 6.75 -4 9 C-3.35455571 5.51460083 -1.89865603 2.97180943 0 0 Z " fill="#698ABA" transform="translate(793,2261)"/>
<path d="M0 0 C0 0.66 0 1.32 0 2 C-5.41176471 6 -5.41176471 6 -8 6 C-8 5.01 -8 4.02 -8 3 C-6.68 3 -5.36 3 -4 3 C-4 2.34 -4 1.68 -4 1 C-2 0 -2 0 0 0 Z " fill="#7A8C97" transform="translate(214,2254)"/>
<path d="M0 0 C2.475 0.99 2.475 0.99 5 2 C5 2.99 5 3.98 5 5 C5.66 5.33 6.32 5.66 7 6 C3.20411134 5.45773019 1.52788007 3.79872437 -1 1 C-0.67 0.67 -0.34 0.34 0 0 Z " fill="#D2DDE1" transform="translate(1318,2254)"/>
<path d="M0 0 C1.65 0 3.3 0 5 0 C5.33 0.99 5.66 1.98 6 3 C6.66 3.33 7.32 3.66 8 4 C4 4 4 4 1.75 2 C1.1725 1.34 0.595 0.68 0 0 Z " fill="#C8E0EE" transform="translate(530,2255)"/>
<path d="M0 0 C2 1 2 1 2 1 Z M-5 4 C-3.68 4.66 -2.36 5.32 -1 6 C-2.65 6.66 -4.3 7.32 -6 8 C-6 5 -6 5 -5 4 Z " fill="#F0FEE9" transform="translate(246,103)"/>
<path d="M0 0 C1.98 0 3.96 0 6 0 C6 1.32 6 2.64 6 4 C4.02 3.34 2.04 2.68 0 2 C0 1.34 0 0.68 0 0 Z " fill="#ABC6D9" transform="translate(853,2282)"/>
<path d="M0 0 C-0.33 0.66 -0.66 1.32 -1 2 C-3.64 2 -6.28 2 -9 2 C-5.96271914 -1.03728086 -4.06215635 -1.35405212 0 0 Z " fill="#BAC8D2" transform="translate(485,2280)"/>
<path d="M0 0 C2.00720923 0.28674418 4.0085944 0.61866701 6 1 C4.625 3 4.625 3 3 5 C2.34 5 1.68 5 1 5 C1 4.01 1 3.02 1 2 C0.34 1.67 -0.32 1.34 -1 1 C-0.67 0.67 -0.34 0.34 0 0 Z " fill="#9EA7C0" transform="translate(192,2270)"/>
<path d="M0 0 C0.66 0 1.32 0 2 0 C1.43628586 3.26954202 0.50037734 4.82575883 -2 7 C-2.33 5.68 -2.66 4.36 -3 3 C-2.01 3 -1.02 3 0 3 C0 2.01 0 1.02 0 0 Z " fill="#A2BEE1" transform="translate(1577,2264)"/>
<path d="M0 0 C0.66 0.66 1.32 1.32 2 2 C0.35 3.65 -1.3 5.3 -3 7 C-3.33 5.68 -3.66 4.36 -4 3 C-2.68 2.67 -1.36 2.34 0 2 C0 1.34 0 0.68 0 0 Z " fill="#A7DEE6" transform="translate(1483,2259)"/>
<path d="M0 0 C-2.97 1.65 -5.94 3.3 -9 5 C-6.64389875 0.2877975 -5.23968794 -1.74656265 0 0 Z " fill="#4D536E" transform="translate(1003,2255)"/>
<path d="M0 0 C0.99 0 1.98 0 3 0 C3.33 0.99 3.66 1.98 4 3 C3.360625 3.12375 2.72125 3.2475 2.0625 3.375 C1.381875 3.58125 0.70125 3.7875 0 4 C-0.33 4.66 -0.66 5.32 -1 6 C-1 2 -1 2 0 0 Z " fill="#BCC3D5" transform="translate(106,2256)"/>
<path d="M0 0 C1.65 0.99 3.3 1.98 5 3 C4.67 3.66 4.34 4.32 4 5 C2.35 4.67 0.7 4.34 -1 4 C-0.67 2.68 -0.34 1.36 0 0 Z " fill="#EFFEEF" transform="translate(1465,84)"/>
</svg>
